<svg xmlns="http://www.w3.org/2000/svg" xmlns:xlink="http://www.w3.org/1999/xlink" viewBox="0 0 575.5 280.96"><defs><style>.cls-1,.cls-13,.cls-5{fill:none;}.cls-2{clip-path:url(#clip-path);}.cls-3{fill:#e0e9fc;}.cls-4{fill:#997b53;}.cls-5{stroke:#000;stroke-width:3px;}.cls-13,.cls-5{stroke-miterlimit:10;}.cls-6{font-size:33px;letter-spacing:0.03em;}.cls-10,.cls-6,.cls-7{fill:#7f796e;}.cls-6,.cls-7{font-family:Superclarendon-Regular, Superclarendon;}.cls-7{font-size:16px;letter-spacing:0.13em;}.cls-8{letter-spacing:0.3em;}.cls-9{letter-spacing:0.28em;}.cls-10{font-size:13px;font-family:Superclarendon-LightItalic, Superclarendon;font-style:italic;letter-spacing:0.03em;}.cls-11{letter-spacing:-0.01em;}.cls-12{letter-spacing:0.02em;}.cls-13{stroke:#7f796e;}</style><clipPath id="clip-path"><polygon class="cls-1" points="359.71 12.71 217.01 12.71 251.85 218.47 359.71 218.47 467.57 218.47 502.41 12.71 359.71 12.71"/></clipPath></defs><title>Asset 3</title><g id="Layer_2" data-name="Layer 2"><g id="Layer_1-2" data-name="Layer 1"><g class="cls-2"><rect class="cls-3" x="200.42" y="12.71" width="333.52" height="127.6"/><rect class="cls-4" x="200.42" y="111.31" width="333.52" height="144.53"/></g><path class="cls-5" d="M573.9,91.14c-.77-12.4-6.07-22.32-15.35-28.68-14.93-10.25-37-8.9-52.13-6.24l7.05-41.63A11.21,11.21,0,0,0,502.41,1.5H217A11.21,11.21,0,0,0,206,14.58l34.69,204.83v48.84a11.21,11.21,0,0,0,11.21,11.21H467.57a11.21,11.21,0,0,0,11.21-11.21V219.42l7-41.41C504.63,171.54,577.11,143.16,573.9,91.14ZM458.09,207.26H261.33l-31-183.33H489.14Zm32-54.81L502.4,80c11.81-2.85,33.23-6,43.46,1,2.21,1.52,5.21,4.37,5.66,11.58C553.22,120.17,515.89,141.78,490.12,152.45Z"/><text class="cls-6" transform="translate(78.28 59.31)">1 </text><text class="cls-7" transform="translate(102.43 59.22)">P<tspan class="cls-8" x="14.21" y="0">A</tspan><tspan class="cls-9" x="33.07" y="0">R</tspan><tspan class="cls-8" x="50.99" y="0">T </tspan></text><text class="cls-6" transform="translate(75.28 155.31)">1 </text><text class="cls-7" transform="translate(100.43 155.22)">P<tspan class="cls-8" x="14.21" y="0">A</tspan><tspan class="cls-9" x="33.07" y="0">R</tspan><tspan class="cls-8" x="50.99" y="0">T </tspan></text><text class="cls-10" transform="translate(83.2 77.12)">Hot W<tspan class="cls-11" x="47.28" y="0">a</tspan><tspan class="cls-12" x="55.72" y="0">ter</tspan></text><text class="cls-10" transform="translate(88.68 174.57)">Espresso</text><line class="cls-13" x1="173.48" y1="74.84" x2="227" y2="74.84"/><line class="cls-13" x1="165.87" y1="174.19" x2="244" y2="174.19"/></g></g></svg>