<?xml version="1.0" encoding="utf-8"?>
<!-- Generator: Adobe Illustrator 21.1.0, SVG Export Plug-In . SVG Version: 6.00 Build 0)  -->
<svg version="1.1" id="Layer_1" xmlns="http://www.w3.org/2000/svg" xmlns:xlink="http://www.w3.org/1999/xlink" x="0px" y="0px"
	 viewBox="0 0 580.7 281" style="enable-background:new 0 0 580.7 281;" xml:space="preserve">
<style type="text/css">
	.st0{clip-path:url(#SVGID_2_);}
	.st1{fill:#E0E9FC;}
	.st2{fill:#997B53;}
	.st3{fill:none;stroke:#000000;stroke-width:3;stroke-miterlimit:10;}
	.st4{fill:#7F796E;}
	.st5{font-family:'Superclarendon-Regular';}
	.st6{font-size:33px;}
	.st7{font-size:16px;}
	.st8{letter-spacing:2;}
	.st9{letter-spacing:4;}
	.st10{font-family:'Superclarendon-Italic';}
	.st11{font-size:13px;}
	.st12{fill:none;stroke:#7F796E;stroke-miterlimit:10;}
</style>
<title>Asset 3</title>
<g id="Layer_2">
	<g id="Layer_1-2">
		<g>
			<defs>
				<polygon id="SVGID_1_" points="284.4,12.7 141.7,12.7 176.6,218.5 284.4,218.5 392.3,218.5 427.1,12.7 				"/>
			</defs>
			<clipPath id="SVGID_2_">
				<use xlink:href="#SVGID_1_"  style="overflow:visible;"/>
			</clipPath>
			<g class="st0">
				<rect x="125.1" y="12.7" class="st1" width="333.5" height="127.6"/>
				<rect x="125.1" y="111.3" class="st2" width="333.5" height="144.5"/>
			</g>
		</g>
		<path class="st3" d="M498.6,91.1c-0.8-12.4-6.1-22.3-15.3-28.7c-14.9-10.2-37-8.9-52.1-6.2l7-41.6c1-6.1-3.1-11.9-9.2-12.9
			c-0.6-0.1-1.3-0.2-1.9-0.2H141.7c-6.2,0-11.2,5.1-11.2,11.3c0,0.6,0.1,1.2,0.2,1.8l34.7,204.8v48.8c0,6.2,5,11.2,11.2,11.2h215.7
			c6.2,0,11.2-5,11.2-11.2v-48.8l7-41.4C429.4,171.5,501.8,143.2,498.6,91.1z M382.8,207.3H186L155,23.9h258.8L382.8,207.3z
			 M414.8,152.4L427.1,80c11.8-2.8,33.2-6,43.5,1c2.2,1.5,5.2,4.4,5.7,11.6C477.9,120.2,440.6,141.8,414.8,152.4L414.8,152.4z"/>
		<text transform="matrix(1 0 0 1 3 59.31)" class="st4 st5 st6">1</text>
		<text transform="matrix(1 0 0 1 27.15 59.22)" class="st4 st5 st7 st8">P</text>
		<text transform="matrix(1 0 0 1 41.36 59.22)" class="st4 st5 st7 st9">A</text>
		<text transform="matrix(1 0 0 1 60.22 59.22)" class="st4 st5 st7 st9">R</text>
		<text transform="matrix(1 0 0 1 78.14 59.22)" class="st4 st5 st7 st9">T</text>
		<text transform="matrix(1 0 0 1 0 155.31)" class="st4 st5 st6">1</text>
		<text transform="matrix(1 0 0 1 25.15 155.22)" class="st4 st5 st7 st8">P</text>
		<text transform="matrix(1 0 0 1 39.36 155.22)" class="st4 st5 st7 st9">A</text>
		<text transform="matrix(1 0 0 1 58.22 155.22)" class="st4 st5 st7 st9">R</text>
		<text transform="matrix(1 0 0 1 76.14 155.22)" class="st4 st5 st7 st9">T</text>
		<text transform="matrix(1 0 0 1 7.92 77.12)" class="st4 st10 st11">Hot W</text>
		<text transform="matrix(1 0 0 1 55.2 77.12)" class="st4 st10 st11">a</text>
		<text transform="matrix(1 0 0 1 63.64 77.12)" class="st4 st10 st11">ter</text>
		<text transform="matrix(1 0 0 1 13.4 174.57)" class="st4 st10 st11">Espresso</text>
		<line class="st12" x1="98.2" y1="74.8" x2="151.7" y2="74.8"/>
		<line class="st12" x1="90.6" y1="174.2" x2="168.7" y2="174.2"/>
	</g>
</g>
</svg>
