<?xml version="1.0" encoding="utf-8"?>
<!-- Generator: Adobe Illustrator 21.1.0, SVG Export Plug-In . SVG Version: 6.00 Build 0)  -->
<svg version="1.1" id="Layer_1" xmlns="http://www.w3.org/2000/svg" xmlns:xlink="http://www.w3.org/1999/xlink" x="0px" y="0px"
	 viewBox="0 0 616.2 523.3" style="enable-background:new 0 0 616.2 523.3;" xml:space="preserve">
<style type="text/css">
	.st0{fill:#F4F4F4;}
	.st1{fill:#4C4846;}
	.st2{fill:#7F796E;}
	.st3{font-family:'Superclarendon-Italic';}
	.st4{font-size:13px;}
	.st5{fill:#997B53;}
	.st6{font-family:'Superclarendon-Regular';}
	.st7{font-size:33px;}
	.st8{font-size:16px;}
	.st9{letter-spacing:2;}
	.st10{letter-spacing:4;}
	.st11{fill:none;stroke:#7F796E;stroke-miterlimit:10;}
	.st12{fill:#FFFFFF;}
	.st13{fill:#5E3921;}
	.st14{fill:none;stroke:#000000;stroke-width:3;stroke-miterlimit:10;}
</style>
<title>12</title>
<g id="Layer_2">
	<g id="Layer_1-2">
		<polygon class="st0" points="179.2,128.4 441.2,128.4 425.2,214.4 194.2,214.4 		"/>
		<polygon class="st1" points="211.2,318.4 232.4,467.8 387.3,467.8 409.2,318.4 		"/>
		<text transform="matrix(1 0 0 1 0 181)" class="st2 st3 st4">Steamed Milk</text>
		<polygon class="st5" points="194.2,214.4 211.2,318.4 409.2,318.4 425.2,214.4 		"/>
		<text transform="matrix(1 0 0 1 3.48 162.41)" class="st2 st6 st7">1</text>
		<text transform="matrix(1 0 0 1 27.63 162.32)" class="st2 st6 st8 st9">P</text>
		<text transform="matrix(1 0 0 1 41.84 162.32)" class="st2 st6 st8 st10">A</text>
		<text transform="matrix(1 0 0 1 60.7 162.32)" class="st2 st6 st8 st10">R</text>
		<text transform="matrix(1 0 0 1 78.62 162.32)" class="st2 st6 st8 st10">T</text>
		<text transform="matrix(1 0 0 1 50.48 261.41)" class="st2 st6 st7">1</text>
		<text transform="matrix(1 0 0 1 74.63 261.32)" class="st2 st6 st8 st9">P</text>
		<text transform="matrix(1 0 0 1 88.84 261.32)" class="st2 st6 st8 st10">A</text>
		<text transform="matrix(1 0 0 1 107.7 261.32)" class="st2 st6 st8 st10">R</text>
		<text transform="matrix(1 0 0 1 125.62 261.32)" class="st2 st6 st8 st10">T</text>
		<text transform="matrix(1 0 0 1 49.48 374.41)" class="st2 st6 st7">1</text>
		<text transform="matrix(1 0 0 1 74.63 374.32)" class="st2 st6 st8 st9">P</text>
		<text transform="matrix(1 0 0 1 88.84 374.32)" class="st2 st6 st8 st10">A</text>
		<text transform="matrix(1 0 0 1 107.7 374.32)" class="st2 st6 st8 st10">R</text>
		<text transform="matrix(1 0 0 1 125.62 374.32)" class="st2 st6 st8 st10">T</text>
		<text transform="matrix(1 0 0 1 55.38 279.21)" class="st2 st3 st4">Espresso</text>
		<text transform="matrix(1 0 0 1 59.23 393.67)" class="st2 st3 st4">Chocol</text>
		<text transform="matrix(1 0 0 1 111.4416 393.67)" class="st2 st3 st4">a</text>
		<text transform="matrix(1 0 0 1 119.8716 393.67)" class="st2 st3 st4">te</text>
		<line class="st11" x1="111.1" y1="178" x2="186.7" y2="178"/>
		<line class="st11" x1="137.7" y1="276.9" x2="205.2" y2="276.9"/>
		<line class="st11" x1="144.1" y1="393.3" x2="222.2" y2="393.3"/>
		<path class="st12" d="M184.8,134.4c0,0-13.3-44.8,41.5-49.8c0,0,3.3-43.1,59.7-43.1c0,0,21.6-18.2,11.6-41.5
			c0,0,46.5,29.9,46.5,44.8c0,0,38.2-5,38.2,33.2c0,0,64.7,3.3,54.8,56.4L184.8,134.4z"/>
		<path class="st13" d="M292.7,87.1c5.4,0,5.4-8.3,0-8.3S287.3,87.1,292.7,87.1z"/>
		<path class="st13" d="M264.5,72.2c5.4,0,5.4-8.3,0-8.3S259.1,72.2,264.5,72.2z"/>
		<path class="st13" d="M271.1,113.7c5.4,0,5.4-8.3,0-8.3S265.7,113.7,271.1,113.7z"/>
		<path class="st13" d="M242.9,102c5.4,0,5.4-8.3,0-8.3S237.5,102,242.9,102z"/>
		<path class="st13" d="M304.3,50.6c5.4,0,5.4-8.3,0-8.3S298.9,50.6,304.3,50.6z"/>
		<path class="st13" d="M213,125.3c5.4,0,5.4-8.3,0-8.3S207.7,125.3,213,125.3z"/>
		<path class="st13" d="M305.9,123.6c5.4,0,5.4-8.3,0-8.3S300.6,123.6,305.9,123.6z"/>
		<path class="st14" d="M442.9,244.4l24-145c1.1-7-3.6-13.7-10.7-14.8c-0.7-0.1-1.4-0.2-2.1-0.2H165.5c-7.1,0-12.9,5.8-12.9,12.9
			c0,0.6,0,1.3,0.1,1.9l55.2,351.7c0.1,0.7,0.2,1.3,0.2,2v56c0,7.1,5.8,12.9,12.9,12.9h0h174.7c7.1,0,12.9-5.8,12.9-12.9v0v-55.9
			c0-0.7,0.1-1.4,0.2-2.1l15.4-93.1c54,12.1,67.3-45.6,67.3-45.6C516,222.3,455.7,239.8,442.9,244.4z M470.2,293.9
			c-10.3,51.6-34.3,39.9-41.3,35.2l8.5-51.4C447.1,269,480.6,241.8,470.2,293.9z"/>
		<polygon class="st14" points="186.7,111.9 241.7,453.9 375.7,453.9 432.7,111.9 		"/>
	</g>
</g>
</svg>
