<?xml version="1.0" encoding="utf-8"?>
<!-- Generator: Adobe Illustrator 21.1.0, SVG Export Plug-In . SVG Version: 6.00 Build 0)  -->
<svg version="1.1" id="Layer_1" xmlns="http://www.w3.org/2000/svg" xmlns:xlink="http://www.w3.org/1999/xlink" x="0px" y="0px"
	 viewBox="0 0 621.2 281" style="enable-background:new 0 0 621.2 281;" xml:space="preserve">
<style type="text/css">
	.st0{clip-path:url(#SVGID_2_);}
	.st1{fill:#F4F4F4;}
	.st2{fill:#997B53;}
	.st3{fill:none;stroke:#000000;stroke-width:3;stroke-miterlimit:10;}
	.st4{fill:#7F796E;}
	.st5{font-family:'Superclarendon-Regular';}
	.st6{font-size:33px;}
	.st7{font-size:16px;}
	.st8{letter-spacing:2;}
	.st9{letter-spacing:4;}
	.st10{font-family:'Superclarendon-Italic';}
	.st11{font-size:13px;}
	.st12{fill:none;stroke:#7F796E;stroke-miterlimit:10;}
</style>
<title>2</title>
<g id="Layer_2">
	<g id="Layer_1-2">
		<g>
			<defs>
				<polygon id="SVGID_1_" points="308.9,12.7 166.2,12.7 201.1,218.5 308.9,218.5 416.8,218.5 451.6,12.7 				"/>
			</defs>
			<clipPath id="SVGID_2_">
				<use xlink:href="#SVGID_1_"  style="overflow:visible;"/>
			</clipPath>
			<g class="st0">
				<rect x="149.6" y="12.7" class="st1" width="333.5" height="127.6"/>
				<rect x="149.6" y="111.3" class="st2" width="333.5" height="144.5"/>
			</g>
		</g>
		<path class="st3" d="M523.1,91.1c-0.8-12.4-6.1-22.3-15.3-28.7c-14.9-10.2-37-8.9-52.1-6.2l7-41.6c1-6.1-3.1-11.9-9.2-12.9
			c-0.6-0.1-1.3-0.2-1.9-0.2H166.2C160,1.5,155,6.6,155,12.8c0,0.6,0.1,1.2,0.2,1.8l34.7,204.8v48.8c0,6.2,5,11.2,11.2,11.2h215.7
			c6.2,0,11.2-5,11.2-11.2v-48.8l7-41.4C453.8,171.5,526.3,143.2,523.1,91.1z M407.3,207.3H210.5l-31-183.3h258.8L407.3,207.3z
			 M439.3,152.4L451.6,80c11.8-2.8,33.2-6,43.5,1c2.2,1.5,5.2,4.4,5.7,11.6C502.4,120.2,465.1,141.8,439.3,152.4L439.3,152.4z"/>
		<text transform="matrix(1 0 0 1 6.48 41.31)" class="st4 st5 st6">1</text>
		<text transform="matrix(1 0 0 1 30.63 41.22)" class="st4 st5 st7 st8">P</text>
		<text transform="matrix(1 0 0 1 44.84 41.22)" class="st4 st5 st7 st9">A</text>
		<text transform="matrix(1 0 0 1 63.7 41.22)" class="st4 st5 st7 st9">R</text>
		<text transform="matrix(1 0 0 1 81.62 41.22)" class="st4 st5 st7 st9">T</text>
		<text transform="matrix(1 0 0 1 24.48 155.31)" class="st4 st5 st6">1</text>
		<text transform="matrix(1 0 0 1 49.63 155.22)" class="st4 st5 st7 st8">P</text>
		<text transform="matrix(1 0 0 1 63.84 155.22)" class="st4 st5 st7 st9">A</text>
		<text transform="matrix(1 0 0 1 82.7 155.22)" class="st4 st5 st7 st9">R</text>
		<text transform="matrix(1 0 0 1 100.62 155.22)" class="st4 st5 st7 st9">T</text>
		<text transform="matrix(1 0 0 1 0 61.72)" class="st4 st10 st11">Steamed Milk</text>
		<text transform="matrix(1 0 0 1 9.69 77.32)" class="st4 st10 st11">a</text>
		<text transform="matrix(1 0 0 1 18.56 77.32)" class="st4 st10 st11">n</text>
		<text transform="matrix(1 0 0 1 28.18 77.32)" class="st4 st10 st11">d Cream</text>
		<text transform="matrix(1 0 0 1 37.88 174.57)" class="st4 st10 st11">Espresso</text>
		<line class="st12" x1="114.7" y1="74.8" x2="176.2" y2="74.8"/>
		<line class="st12" x1="119.1" y1="174.2" x2="197.2" y2="174.2"/>
	</g>
</g>
</svg>
