<?xml version="1.0" encoding="utf-8"?>
<!-- Generator: Adobe Illustrator 21.1.0, SVG Export Plug-In . SVG Version: 6.00 Build 0)  -->
<svg version="1.1" id="Layer_1" xmlns="http://www.w3.org/2000/svg" xmlns:xlink="http://www.w3.org/1999/xlink" x="0px" y="0px"
	 viewBox="0 0 568.7 307" style="enable-background:new 0 0 568.7 307;" xml:space="preserve">
<style type="text/css">
	.st0{clip-path:url(#SVGID_2_);}
	.st1{fill:#FFFFFF;}
	.st2{fill:#F4F4F4;}
	.st3{fill:#997B53;}
	.st4{fill:#7F796E;}
	.st5{font-family:'Superclarendon-Regular';}
	.st6{font-size:33px;}
	.st7{font-size:16px;}
	.st8{letter-spacing:2;}
	.st9{letter-spacing:4;}
	.st10{font-family:'Superclarendon-Italic';}
	.st11{font-size:13px;}
	.st12{fill:none;stroke:#7F796E;stroke-miterlimit:10;}
	.st13{fill:none;stroke:#000000;stroke-width:3;stroke-miterlimit:10;}
</style>
<title>3</title>
<g id="Layer_2">
	<g id="Layer_1-2">
		<g>
			<defs>
				<polygon id="SVGID_1_" points="285.4,49.3 142.7,49.3 177.6,244.5 285.4,244.5 393.3,244.5 428.1,49.3 				"/>
			</defs>
			<clipPath id="SVGID_2_">
				<use xlink:href="#SVGID_1_"  style="overflow:visible;"/>
			</clipPath>
			<g class="st0">
				<rect x="126.1" y="34.3" class="st1" width="333.5" height="96.6"/>
				<rect x="126.1" y="100.4" class="st2" width="333.5" height="135.6"/>
				<rect x="126.1" y="170.7" class="st3" width="333.5" height="135.6"/>
			</g>
		</g>
		<text transform="matrix(1 0 0 1 19 115.31)" class="st4 st5 st6">1</text>
		<text transform="matrix(1 0 0 1 43.15 115.22)" class="st4 st5 st7 st8">P</text>
		<text transform="matrix(1 0 0 1 57.36 115.22)" class="st4 st5 st7 st9">A</text>
		<text transform="matrix(1 0 0 1 76.22 115.22)" class="st4 st5 st7 st9">R</text>
		<text transform="matrix(1 0 0 1 94.14 115.22)" class="st4 st5 st7 st9">T</text>
		<text transform="matrix(1 0 0 1 0 181.31)" class="st4 st5 st6">1</text>
		<text transform="matrix(1 0 0 1 25.15 181.22)" class="st4 st5 st7 st8">P</text>
		<text transform="matrix(1 0 0 1 39.36 181.22)" class="st4 st5 st7 st9">A</text>
		<text transform="matrix(1 0 0 1 58.22 181.22)" class="st4 st5 st7 st9">R</text>
		<text transform="matrix(1 0 0 1 76.14 181.22)" class="st4 st5 st7 st9">T</text>
		<text transform="matrix(1 0 0 1 46.74 133.72)" class="st4 st10 st11">Milk</text>
		<text transform="matrix(1 0 0 1 7 36.31)" class="st4 st5 st6">1</text>
		<text transform="matrix(1 0 0 1 31.15 36.22)" class="st4 st5 st7 st8">P</text>
		<text transform="matrix(1 0 0 1 45.36 36.22)" class="st4 st5 st7 st9">A</text>
		<text transform="matrix(1 0 0 1 64.22 36.22)" class="st4 st5 st7 st9">R</text>
		<text transform="matrix(1 0 0 1 82.14 36.22)" class="st4 st5 st7 st9">T</text>
		<text transform="matrix(1 0 0 1 31.1 54.72)" class="st4 st10 st11">F</text>
		<text transform="matrix(1 0 0 1 40.3 54.72)" class="st4 st10 st11">oam</text>
		<text transform="matrix(1 0 0 1 13.4 200.57)" class="st4 st10 st11">Espresso</text>
		<line class="st12" x1="95.2" y1="132.8" x2="156.7" y2="132.8"/>
		<line class="st12" x1="81.2" y1="54.8" x2="142.7" y2="54.8"/>
		<line class="st12" x1="94.6" y1="200.2" x2="172.7" y2="200.2"/>
		<path class="st1" d="M270.7,9.3c0,0,175-25,157,42l-285-2C142.7,49.3,128.7-25.7,270.7,9.3z"/>
		<path class="st13" d="M498.6,117.1c-0.8-12.4-6.1-22.3-15.3-28.7c-14.9-10.2-37-8.9-52.1-6.2l7-41.6c1-6.1-3.1-11.9-9.2-12.9
			c-0.6-0.1-1.3-0.2-1.9-0.2H141.7c-6.2,0-11.2,5.1-11.2,11.3c0,0.6,0.1,1.2,0.2,1.8l34.7,204.8v48.8c0,6.2,5,11.2,11.2,11.2h215.7
			c6.2,0,11.2-5,11.2-11.2v-48.8l7-41.4C429.4,197.5,501.8,169.1,498.6,117.1z M382.8,233.3H186L155,49.9h258.8L382.8,233.3z
			 M414.8,178.4l12.3-72.4c11.8-2.8,33.2-6,43.5,1c2.2,1.5,5.2,4.4,5.7,11.6C477.9,146.2,440.6,167.8,414.8,178.4L414.8,178.4z"/>
	</g>
</g>
</svg>
