<?xml version="1.0" encoding="utf-8"?>
<!-- Generator: Adobe Illustrator 21.1.0, SVG Export Plug-In . SVG Version: 6.00 Build 0)  -->
<svg version="1.1" id="Layer_1" xmlns="http://www.w3.org/2000/svg" xmlns:xlink="http://www.w3.org/1999/xlink" x="0px" y="0px"
	 viewBox="0 0 299 422.2" style="enable-background:new 0 0 299 422.2;" xml:space="preserve">
<style type="text/css">
	.st0{fill:none;stroke:#000000;stroke-width:3.39;stroke-miterlimit:10;}
	.st1{fill:#997B53;}
	.st2{fill:#EBDEBA;stroke:#000000;stroke-width:3.39;stroke-miterlimit:10;}
</style>
<title>5</title>
<g id="Layer_2">
	<g id="Layer_1-2">
		<path class="st0" d="M272.6,84.2c-1.8-2.1-4.5-3.3-7.2-3.3H33.4c-5.3,0-9.6,4.3-9.6,9.6c0,0.5,0,1,0.1,1.4l49,320.5
			c0.7,4.7,4.7,8.1,9.4,8.1h133.8c4.7,0,8.7-3.4,9.4-8.1l49-320.5C275.2,89.1,274.4,86.3,272.6,84.2z"/>
		<polygon class="st1" points="244.6,304.3 56,304.3 39.1,165.9 261.6,165.9 		"/>
		<path class="st1" d="M244.6,315H56c-5.4,0-10-4-10.7-9.4l-17-138.4c-0.7-5.9,3.5-11.3,9.4-12c0.5-0.1,0.9-0.1,1.4-0.1h222.5
			c5.9,0,10.8,4.8,10.8,10.7c0,0.4,0,0.9-0.1,1.3l-17,138.4C254.6,310.9,250,315,244.6,315z M65.6,293.5h169.5l14.3-116.9H51.2
			L65.6,293.5z"/>
		<path class="st2" d="M284.2,45h-12.3L257.2,7.8c-1.4-3.7-5-6.1-8.9-6.1h-198c-3.9,0-7.5,2.4-8.9,6.1L26.9,45H14.6
			C9.3,45,5,49.3,5,54.6l0,0v35.8c0,5.3,4.3,9.6,9.6,9.6h269.6c5.3,0,9.6-4.3,9.6-9.6V54.6C293.7,49.3,289.4,45,284.2,45z"/>
		<polygon class="st0" points="43.1,100 87.1,400.4 210.1,400.4 255.6,100 		"/>
	</g>
</g>
</svg>
