<svg xmlns="http://www.w3.org/2000/svg" xmlns:xlink="http://www.w3.org/1999/xlink" viewBox="0 0 375.08 280.96"><defs><style>.cls-1,.cls-4{fill:none;}.cls-2{clip-path:url(#clip-path);}.cls-3{fill:#997b53;}.cls-4{stroke:#000;stroke-miterlimit:10;stroke-width:3px;}</style><clipPath id="clip-path"><polygon class="cls-1" points="159.29 12.71 16.59 12.71 51.44 218.47 159.29 218.47 267.15 218.47 302 12.71 159.29 12.71"/></clipPath></defs><title>6</title><g id="Layer_2" data-name="Layer 2"><g id="Layer_1-2" data-name="Layer 1"><g class="cls-2"><rect class="cls-3" y="12.71" width="333.52" height="127.6"/><rect class="cls-3" y="111.31" width="333.52" height="144.53"/></g><path class="cls-4" d="M373.48,91.14c-.77-12.4-6.07-22.32-15.35-28.68-14.93-10.25-37-8.9-52.13-6.24l7.05-41.63A11.21,11.21,0,0,0,302,1.5H16.59A11.21,11.21,0,0,0,5.54,14.58L40.22,219.41v48.84a11.21,11.21,0,0,0,11.21,11.21H267.15a11.21,11.21,0,0,0,11.21-11.21V219.42l7-41.41C304.21,171.54,376.69,143.16,373.48,91.14ZM257.68,207.26H60.91l-31-183.33H288.72Zm32-54.81L302,80c11.81-2.85,33.23-6,43.46,1,2.21,1.52,5.21,4.37,5.66,11.58C352.81,120.17,315.47,141.78,289.7,152.45Z"/></g></g></svg>