<?xml version="1.0" encoding="utf-8"?>
<!-- Generator: Adobe Illustrator 21.1.0, SVG Export Plug-In . SVG Version: 6.00 Build 0)  -->
<svg version="1.1" id="Layer_1" xmlns="http://www.w3.org/2000/svg" xmlns:xlink="http://www.w3.org/1999/xlink" x="0px" y="0px"
	 viewBox="0 0 584.7 281" style="enable-background:new 0 0 584.7 281;" xml:space="preserve">
<style type="text/css">
	.st0{clip-path:url(#SVGID_2_);}
	.st1{fill:#F4F4F4;}
	.st2{fill:#997B53;}
	.st3{fill:#7F796E;}
	.st4{font-family:'Superclarendon-Regular';}
	.st5{font-size:33px;}
	.st6{font-size:16px;}
	.st7{letter-spacing:2;}
	.st8{letter-spacing:4;}
	.st9{font-family:'Superclarendon-Italic';}
	.st10{font-size:13px;}
	.st11{fill:none;stroke:#7F796E;stroke-miterlimit:10;}
	.st12{fill:none;stroke:#000000;stroke-width:3;stroke-miterlimit:10;}
</style>
<title>7</title>
<g id="Layer_2">
	<g id="Layer_1-2">
		<g>
			<defs>
				<polygon id="SVGID_1_" points="289.4,12.3 146.7,12.3 181.6,218.5 289.4,218.5 397.3,218.5 432.1,12.3 				"/>
			</defs>
			<clipPath id="SVGID_2_">
				<use xlink:href="#SVGID_1_"  style="overflow:visible;"/>
			</clipPath>
			<g class="st0">
				<rect x="130.1" y="8.3" class="st1" width="333.5" height="96.6"/>
				<rect x="130.1" y="74.4" class="st1" width="333.5" height="135.6"/>
				<rect x="130.1" y="107.3" class="st2" width="333.5" height="173"/>
			</g>
		</g>
		<text transform="matrix(1 0 0 1 19 51.31)" class="st3 st4 st5">1</text>
		<text transform="matrix(1 0 0 1 43.15 51.22)" class="st3 st4 st6 st7">P</text>
		<text transform="matrix(1 0 0 1 57.36 51.22)" class="st3 st4 st6 st8">A</text>
		<text transform="matrix(1 0 0 1 76.22 51.22)" class="st3 st4 st6 st8">R</text>
		<text transform="matrix(1 0 0 1 94.14 51.22)" class="st3 st4 st6 st8">T</text>
		<text transform="matrix(1 0 0 1 0 147.31)" class="st3 st4 st5">1</text>
		<text transform="matrix(1 0 0 1 25.15 147.22)" class="st3 st4 st6 st7">P</text>
		<text transform="matrix(1 0 0 1 39.36 147.22)" class="st3 st4 st6 st8">A</text>
		<text transform="matrix(1 0 0 1 58.22 147.22)" class="st3 st4 st6 st8">R</text>
		<text transform="matrix(1 0 0 1 76.14 147.22)" class="st3 st4 st6 st8">T</text>
		<text transform="matrix(1 0 0 1 46.74 69.72)" class="st3 st9 st10">Milk</text>
		<text transform="matrix(1 0 0 1 13.4 166.57)" class="st3 st9 st10">Espresso</text>
		<line class="st11" x1="95.2" y1="68.8" x2="156.7" y2="68.8"/>
		<line class="st11" x1="94.6" y1="166.2" x2="172.7" y2="166.2"/>
		<path class="st12" d="M502.6,91.1c-0.8-12.4-6.1-22.3-15.3-28.7c-14.9-10.2-37-8.9-52.1-6.2l7-41.6c1-6.1-3.1-11.9-9.2-12.9
			c-0.6-0.1-1.3-0.2-1.9-0.2H145.7c-6.2,0-11.2,5.1-11.2,11.3c0,0.6,0.1,1.2,0.2,1.8l34.7,204.8v48.8c0,6.2,5,11.2,11.2,11.2h215.7
			c6.2,0,11.2-5,11.2-11.2v-48.8l7-41.4C433.4,171.5,505.8,143.2,502.6,91.1z M386.8,207.3H190L159,23.9h258.8L386.8,207.3z
			 M418.8,152.4L431.1,80c11.8-2.8,33.2-6,43.5,1c2.2,1.5,5.2,4.4,5.7,11.6C481.9,120.2,444.6,141.8,418.8,152.4L418.8,152.4z"/>
	</g>
</g>
</svg>
