<svg xmlns="http://www.w3.org/2000/svg" viewBox="0 0 288.23 467.76"><defs><style>.cls-1{fill:#fff;}.cls-2{fill:none;stroke:#000;stroke-miterlimit:10;stroke-width:3px;}.cls-3{fill:#997b53;}</style></defs><title>8</title><g id="Layer_2" data-name="Layer 2"><g id="Layer_1-2" data-name="Layer 1"><path class="cls-1" d="M23.53,111.1s-12.74-27.89,39.83-31c0,0,3.19-26.86,57.36-26.86,0,0,20.71-11.36,11.15-25.83,0,0,44.61,18.6,44.61,27.9,0,0,36.65-3.1,36.65,20.66,0,0,62.13,2.07,52.58,35.13Z"/><path class="cls-2" d="M107,20.1c3.69-1,17.55-2.09,36.89-2.09,19.62,0,33.69,1.08,37.45,2.14,53.57,15.17,71.8,63.9,77.83,90.23h16.9c-5.94-28.94-25.79-87.86-90.23-106.11-9.06-2.57-34.4-2.77-41.95-2.77s-32.43.2-41.36,2.71C38,22.39,18.07,81.4,12.13,110.38H29C35.06,84,53.33,35.21,107,20.1Z"/><path class="cls-2" d="M278.92,111.37H9.31a7.81,7.81,0,0,0-7.81,7.81v24a7.81,7.81,0,0,0,7.81,7.81H23.57L59.22,428.77a8.25,8.25,0,0,0,8.19,7.2h.11v22.57a7.71,7.71,0,0,0,7.72,7.71H213a7.72,7.72,0,0,0,7.72-7.71V436h.11a8.26,8.26,0,0,0,8.19-7.2l35.65-277.83h14.26a7.81,7.81,0,0,0,7.81-7.81v-24A7.81,7.81,0,0,0,278.92,111.37Zm-65.36,308.1H74.67L40.22,150.94H248Z"/><polygon class="cls-3" points="237.92 344.63 49.38 344.63 32.41 206.22 254.89 206.22 237.92 344.63"/><path class="cls-3" d="M237.92,355.38H49.38a10.75,10.75,0,0,1-10.67-9.44l-17-138.41a10.75,10.75,0,0,1,10.67-12.06H254.89a10.75,10.75,0,0,1,10.67,12.06l-17,138.41A10.75,10.75,0,0,1,237.92,355.38Zm-179-21.5H228.4L242.74,217H44.56Z"/></g></g></svg>