<?xml version="1.0" encoding="utf-8"?>
<!-- Generator: Adobe Illustrator 21.1.0, SVG Export Plug-In . SVG Version: 6.00 Build 0)  -->
<svg version="1.1" id="Layer_1" xmlns="http://www.w3.org/2000/svg" xmlns:xlink="http://www.w3.org/1999/xlink" x="0px" y="0px"
	 viewBox="0 0 296 401.6" style="enable-background:new 0 0 296 401.6;" xml:space="preserve">
<style type="text/css">
	.st0{clip-path:url(#SVGID_2_);}
	.st1{fill:#997B53;}
	.st2{fill:#896D4C;}
	.st3{fill:#7F6449;}
	.st4{fill:none;stroke:#000000;stroke-width:3.39;stroke-miterlimit:10;}
</style>
<title>9</title>
<g id="Layer_2">
	<g id="Layer_1-2">
		<g>
			<defs>
				<polygon id="SVGID_1_" points="150.6,11 148.5,11 18.6,11 62.9,356.4 148.5,356.4 150.6,356.4 236.1,356.4 280.4,11 				"/>
			</defs>
			<clipPath id="SVGID_2_">
				<use xlink:href="#SVGID_1_"  style="overflow:visible;"/>
			</clipPath>
			<g class="st0">
				<polygon class="st1" points="319.2,35 0,35 19.1,375.6 300.1,375.6 				"/>
			</g>
		</g>
		
			<rect x="79.9" y="256.3" transform="matrix(0.8578 -0.514 0.514 0.8578 -132.1749 98.3202)" class="st2" width="63.4" height="63.5"/>
		<path class="st2" d="M100.7,337.7c-2.2,0-4.2-1.1-5.3-3l-32.6-54.4c-1.7-2.9-0.8-6.7,2.1-8.5l54.4-32.6c2.9-1.7,6.7-0.8,8.5,2.1
			l32.6,54.4c1.8,2.9,0.8,6.7-2.1,8.5c0,0,0,0,0,0l-54.4,32.6C102.9,337.4,101.8,337.7,100.7,337.7z M76.5,279.3l26.3,43.8
			l43.8-26.3L120.4,253L76.5,279.3z"/>
		
			<rect x="156.2" y="268.4" transform="matrix(0.8578 -0.514 0.514 0.8578 -127.5247 139.2666)" class="st2" width="63.4" height="63.5"/>
		<path class="st2" d="M177,349.8c-2.2,0-4.2-1.1-5.3-3l-32.6-54.4c-1.8-2.9-0.8-6.7,2.1-8.5c0,0,0,0,0,0l54.4-32.6
			c2.9-1.7,6.7-0.8,8.5,2.1l32.6,54.4c1.7,2.9,0.8,6.7-2.1,8.5l-54.4,32.6C179.2,349.5,178.1,349.8,177,349.8z M152.9,291.3
			l26.3,43.8l43.9-26.3l-26.3-43.8L152.9,291.3z"/>
		
			<rect x="140.6" y="197.4" transform="matrix(6.209371e-02 -0.9981 0.9981 6.209371e-02 -67.0344 386.8839)" class="st2" width="63.4" height="63.4"/>
		<path class="st2" d="M202,268.9h-0.4l-63.3-3.9c-3.4-0.2-6-3.1-5.8-6.5c0,0,0,0,0,0l3.9-63.3c0.2-3.4,3.1-6,6.5-5.8c0,0,0,0,0,0
			l63.3,3.9c3.4,0.2,6,3.1,5.8,6.5c0,0,0,0,0,0l-3.9,63.3C208,266.4,205.3,268.9,202,268.9z M145.2,253l51,3.2l3.2-51l-51-3.2
			L145.2,253z"/>
		
			<rect x="128.9" y="272" transform="matrix(0.4583 -0.8888 0.8888 0.4583 -182.9228 307.2239)" class="st3" width="63.5" height="63.4"/>
		<path class="st3" d="M174.2,352.6c-1,0-2-0.2-2.8-0.7L115,322.8c-3-1.6-4.2-5.3-2.7-8.3l29.1-56.4c1.6-3,5.3-4.2,8.3-2.7
			l56.4,29.1c3,1.6,4.2,5.3,2.7,8.3l-29.1,56.4C178.6,351.3,176.5,352.6,174.2,352.6L174.2,352.6z M126.2,314.7l45.4,23.4l23.4-45.4
			l-45.4-23.4L126.2,314.7z"/>
		
			<rect x="85.2" y="174.8" transform="matrix(0.9766 -0.2152 0.2152 0.9766 -41.7087 29.9979)" class="st3" width="63.4" height="63.4"/>
		<path class="st3" d="M158.6,235.4c-0.8,0.6-1.7,1.1-2.6,1.3l-62,13.7c-3.3,0.7-6.6-1.4-7.4-4.7c0,0,0,0,0,0l-13.6-62
			c-0.7-3.3,1.4-6.6,4.7-7.3c0,0,0,0,0,0l62-13.6c3.3-0.7,6.6,1.4,7.4,4.7c0,0,0,0,0,0l13.7,62C161.2,231.6,160.4,234,158.6,235.4
			L158.6,235.4z M97.4,237l49.9-11l-11-49.9l-49.9,11L97.4,237z"/>
		<path class="st4" d="M287.4,4.9c-1.8-2-4.3-3.2-7-3.2H18.6c-5.1,0-9.3,4.2-9.3,9.3c0,0.4,0,0.8,0.1,1.2l44.3,345.4
			c0.6,4.6,4.6,8.1,9.2,8.1H63v25.5c0,4.8,3.9,8.7,8.7,8.7h155.6c4.8,0,8.7-3.9,8.7-8.7v-25.5h0.1c4.7,0,8.7-3.5,9.2-8.1l44.3-345.4
			C290,9.5,289.2,6.9,287.4,4.9z M227.9,347H71.1L29.2,20.3h240.7L227.9,347z"/>
	</g>
</g>
</svg>
