<svg xmlns="http://www.w3.org/2000/svg" xmlns:xlink="http://www.w3.org/1999/xlink" viewBox="0 0 313.93 373.81"><defs><style>.cls-1,.cls-12,.cls-7{fill:none;}.cls-2{fill:#ebdeba;}.cls-12,.cls-2,.cls-7{stroke:#000;stroke-miterlimit:10;}.cls-2,.cls-7{stroke-width:0.97px;}.cls-3{font-size:20.13px;font-family:Superclarendon-Regular, Superclarendon;letter-spacing:0.3em;}.cls-4{font-size:16.42px;font-family:Superclarendon-LightItalic, Superclarendon;font-style:italic;letter-spacing:-0.01em;}.cls-5{letter-spacing:0em;}.cls-6{letter-spacing:0.02em;}.cls-8{clip-path:url(#clip-path);}.cls-9{fill:#997b53;}.cls-10{fill:#896d4c;}.cls-11{fill:#7f6449;}.cls-12{stroke-width:1.45px;}</style><clipPath id="clip-path"><polygon class="cls-1" points="148.99 36.52 148.09 36.52 92.47 36.52 111.45 184.41 148.09 184.41 148.99 184.41 185.63 184.41 204.6 36.52 148.99 36.52"/></clipPath></defs><title>frame9</title><g id="Layer_2" data-name="Layer 2"><g id="Layer_1-2" data-name="Layer 1"><rect class="cls-2" x="0.48" y="0.48" width="312.96" height="372.85"/><text class="cls-3" transform="translate(49.58 290.58)">ICED COFFEE</text><text class="cls-4" transform="translate(114.23 260.78)">N<tspan class="cls-5" x="14.45" y="0">o</tspan><tspan class="cls-6" x="24.75" y="0">. 09</tspan></text><line class="cls-7" x1="85.63" y1="316.34" x2="214.09" y2="316.34"/><g class="cls-8"><polygon class="cls-9" points="221.19 46.8 84.51 46.8 92.67 192.67 213.03 192.67 221.19 46.8"/></g><rect class="cls-10" x="118.71" y="141.57" width="27.17" height="27.17" transform="translate(-60.93 90.05) rotate(-30.93)"/><path class="cls-10" d="M127.63,176.43a2.65,2.65,0,0,1-2.27-1.29l-14-23.31a2.65,2.65,0,0,1,.91-3.63l23.31-14a2.65,2.65,0,0,1,3.63.91l14,23.31a2.64,2.64,0,0,1-.91,3.63l-23.31,14A2.64,2.64,0,0,1,127.63,176.43Zm-10.34-25,11.25,18.77,18.77-11.25-11.24-18.77Z"/><rect class="cls-10" x="151.39" y="146.74" width="27.17" height="27.17" transform="translate(-58.94 107.58) rotate(-30.93)"/><path class="cls-10" d="M160.31,181.61a2.65,2.65,0,0,1-2.27-1.29l-14-23.31a2.64,2.64,0,0,1,.91-3.63l23.31-14a2.65,2.65,0,0,1,3.63.91l14,23.31a2.64,2.64,0,0,1-.91,3.63l-23.31,14A2.64,2.64,0,0,1,160.31,181.61Zm-10.34-25,11.24,18.77L180,164.09l-11.25-18.77Z"/><rect class="cls-10" x="144.72" y="116.33" width="27.17" height="27.17" transform="translate(18.81 279.85) rotate(-86.44)"/><path class="cls-10" d="M171,147h-.17l-27.12-1.69a2.64,2.64,0,0,1-2.47-2.8L143,115.35a2.64,2.64,0,0,1,2.8-2.47l27.12,1.69a2.64,2.64,0,0,1,2.47,2.8l-1.69,27.12A2.65,2.65,0,0,1,171,147Zm-24.32-6.8,21.84,1.36,1.36-21.84-21.84-1.36Z"/><rect class="cls-11" x="139.7" y="148.26" width="27.17" height="27.17" transform="translate(-60.82 223.9) rotate(-62.72)"/><path class="cls-11" d="M159.13,182.79a2.62,2.62,0,0,1-1.21-.3L133.77,170a2.64,2.64,0,0,1-1.14-3.56l12.45-24.15a2.64,2.64,0,0,1,3.56-1.14l24.15,12.45a2.64,2.64,0,0,1,1.14,3.56l-12.45,24.15a2.65,2.65,0,0,1-2.35,1.43Zm-20.59-16.23,19.45,10,10-19.45-19.45-10Z"/><rect class="cls-11" x="120.97" y="106.65" width="27.17" height="27.17" transform="translate(-22.72 31.77) rotate(-12.43)"/><path class="cls-11" d="M152.43,132.62a2.66,2.66,0,0,1-1.12.55L124.78,139a2.64,2.64,0,0,1-3.15-2l-5.85-26.54a2.64,2.64,0,0,1,2-3.15l26.53-5.85a2.64,2.64,0,0,1,3.15,2L153.32,130a2.65,2.65,0,0,1-.89,2.6Zm-26.21.66,21.37-4.71-4.71-21.37-21.37,4.71Z"/><path class="cls-12" d="M207.6,33.88a4,4,0,0,0-3-1.35H92.47a4,4,0,0,0-4,4.5l19,147.89a4,4,0,0,0,4,3.48h.05v10.91a3.73,3.73,0,0,0,3.73,3.73h66.61a3.73,3.73,0,0,0,3.73-3.73V188.4h.05a4,4,0,0,0,4-3.48L208.56,37A4,4,0,0,0,207.6,33.88ZM182.11,180.42H115L97,40.51H200.07Z"/></g></g></svg>