<svg xmlns="http://www.w3.org/2000/svg" xmlns:xlink="http://www.w3.org/1999/xlink" viewBox="0 0 313.93 373.81"><defs><style>.cls-1,.cls-13,.cls-8{fill:none;}.cls-2{fill:#ebdeba;}.cls-13,.cls-2,.cls-8{stroke:#000;stroke-miterlimit:10;}.cls-2,.cls-8{stroke-width:0.97px;}.cls-3{font-size:20.13px;font-family:Superclarendon-Regular, Superclarendon;letter-spacing:0.24em;}.cls-4{letter-spacing:0.3em;}.cls-5{font-size:16.42px;font-family:Superclarendon-LightItalic, Superclarendon;font-style:italic;letter-spacing:-0.01em;}.cls-6{letter-spacing:0em;}.cls-7{letter-spacing:0.02em;}.cls-9{clip-path:url(#clip-path);}.cls-10{fill:#fff;}.cls-11{fill:#f4f4f4;}.cls-12{fill:#997b53;}.cls-13{stroke-width:1.51px;}</style><clipPath id="clip-path"><polygon class="cls-1" points="155.07 73.86 83.13 73.86 100.7 172.26 155.07 172.26 209.45 172.26 227.02 73.86 155.07 73.86"/></clipPath></defs><title>frame3</title><g id="Layer_2" data-name="Layer 2"><g id="Layer_1-2" data-name="Layer 1"><rect class="cls-2" x="0.48" y="0.48" width="312.96" height="372.85"/><text class="cls-3" transform="translate(59.58 290.58)">C<tspan class="cls-4" x="20.69" y="0">APPUCCINO</tspan></text><text class="cls-5" transform="translate(124.23 260.78)">N<tspan class="cls-6" x="14.45" y="0">o</tspan><tspan class="cls-7" x="24.75" y="0">. 03</tspan></text><line class="cls-8" x1="91.63" y1="316.34" x2="232.09" y2="316.34"/><g class="cls-9"><rect class="cls-10" x="74.76" y="66.3" width="168.15" height="48.71"/><rect class="cls-11" x="74.76" y="99.63" width="168.15" height="68.36"/><rect class="cls-12" x="74.76" y="135.05" width="168.15" height="68.36"/></g><path class="cls-10" d="M147.66,53.7s88.23-12.6,79.16,21.18l-143.69-1S76.06,36,147.66,53.7Z"/><path class="cls-13" d="M262.56,108.06c-.39-6.25-3.06-11.25-7.74-14.46-7.53-5.17-18.67-4.49-26.28-3.15l3.56-21a5.65,5.65,0,0,0-5.57-6.6H82.62a5.65,5.65,0,0,0-5.57,6.6L94.54,172.73v24.62a5.65,5.65,0,0,0,5.65,5.65H208.95a5.65,5.65,0,0,0,5.65-5.65V172.74l3.54-20.88C227.63,148.59,264.18,134.29,262.56,108.06ZM204.17,166.6H105L89.32,74.17H219.83ZM220.32,139l6.19-36.54c6-1.44,16.75-3,21.91.49,1.12.77,2.63,2.21,2.85,5.84C252.13,122.7,233.31,133.59,220.32,139Z"/></g></g></svg>