<svg xmlns="http://www.w3.org/2000/svg" xmlns:xlink="http://www.w3.org/1999/xlink" viewBox="0 0 313.93 373.81"><defs><style>.cls-1,.cls-11,.cls-8{fill:none;}.cls-2{fill:#ebdeba;}.cls-11,.cls-2,.cls-8{stroke:#000;stroke-miterlimit:10;}.cls-2,.cls-8{stroke-width:0.97px;}.cls-3{fill:#5e3921;}.cls-4{font-size:20.13px;font-family:Superclarendon-Regular, Superclarendon;letter-spacing:0.3em;}.cls-5{font-size:16.42px;font-family:Superclarendon-LightItalic, Superclarendon;font-style:italic;letter-spacing:-0.01em;}.cls-6{letter-spacing:0em;}.cls-7{letter-spacing:0.02em;}.cls-9{clip-path:url(#clip-path);}.cls-10{fill:#997b53;}.cls-11{stroke-width:1.51px;}</style><clipPath id="clip-path"><polygon class="cls-1" points="154.73 68.71 82.79 68.71 100.36 172.45 154.73 172.45 209.11 172.45 226.68 68.71 154.73 68.71"/></clipPath></defs><title>frame6</title><g id="Layer_2" data-name="Layer 2"><g id="Layer_1-2" data-name="Layer 1"><rect class="cls-2" x="0.48" y="0.48" width="312.96" height="372.85"/><path class="cls-3" d="M152.65,51.25c2.54,0,2.54-3.93,0-3.93s-2.54,3.93,0,3.93Z"/><text class="cls-4" transform="translate(74.58 290.58)">ESPRESSO</text><text class="cls-5" transform="translate(124.23 260.78)">N<tspan class="cls-6" x="14.45" y="0">o</tspan><tspan class="cls-7" x="24.75" y="0">. 06</tspan></text><line class="cls-8" x1="95.63" y1="316.34" x2="224.09" y2="316.34"/><g class="cls-9"><rect class="cls-10" x="74.42" y="68.71" width="168.15" height="64.33"/><rect class="cls-10" x="74.42" y="118.42" width="168.15" height="72.87"/></g><path class="cls-11" d="M262.72,108.25C262.33,102,259.66,97,255,93.79c-7.53-5.17-18.67-4.49-26.28-3.15l3.56-21a5.65,5.65,0,0,0-5.57-6.6H82.79a5.65,5.65,0,0,0-5.57,6.6L94.7,172.92v24.62a5.65,5.65,0,0,0,5.65,5.65H209.11a5.65,5.65,0,0,0,5.65-5.65V172.93l3.54-20.88C227.8,148.78,264.34,134.48,262.72,108.25ZM204.34,166.8h-99.2L89.48,74.36H220Zm16.15-27.63,6.19-36.54c6-1.44,16.75-3,21.91.49,1.12.77,2.63,2.21,2.85,5.84C252.3,122.89,233.47,133.78,220.48,139.16Z"/></g></g></svg>