<svg xmlns="http://www.w3.org/2000/svg" xmlns:xlink="http://www.w3.org/1999/xlink" viewBox="0 0 313.93 373.81"><defs><style>.cls-1,.cls-13,.cls-9{fill:none;}.cls-2{fill:#ebdeba;}.cls-13,.cls-2,.cls-9{stroke:#000;stroke-miterlimit:10;}.cls-2,.cls-9{stroke-width:0.97px;}.cls-3{font-size:20.13px;font-family:Superclarendon-Regular, Superclarendon;letter-spacing:0.3em;}.cls-4{letter-spacing:0.25em;}.cls-5{letter-spacing:0.16em;}.cls-6{font-size:16.42px;font-family:Superclarendon-LightItalic, Superclarendon;font-style:italic;letter-spacing:-0.01em;}.cls-7{letter-spacing:0em;}.cls-8{letter-spacing:0.02em;}.cls-10{clip-path:url(#clip-path);}.cls-11{fill:#fff;}.cls-12{fill:#997b53;}.cls-13{stroke-width:1.51px;}</style><clipPath id="clip-path"><polygon class="cls-1" points="151.03 69.12 79.09 69.12 96.66 173.06 151.03 173.06 205.41 173.06 222.98 69.12 151.03 69.12"/></clipPath></defs><title>frame11</title><g id="Layer_2" data-name="Layer 2"><g id="Layer_1-2" data-name="Layer 1"><rect class="cls-2" x="0.48" y="0.48" width="312.96" height="372.85"/><text class="cls-3" transform="translate(55.58 290.58)">M<tspan class="cls-4" x="27.24" y="0">A</tspan><tspan x="49.92" y="0">CCHI</tspan><tspan class="cls-5" x="132.53" y="0">A</tspan><tspan x="153.53" y="0">TO</tspan></text><text class="cls-6" transform="translate(118.23 260.78)">N<tspan class="cls-7" x="14.45" y="0">o</tspan><tspan class="cls-8" x="24.75" y="0">. 11</tspan></text><line class="cls-9" x1="80.44" y1="316.34" x2="213.44" y2="316.34"/><g class="cls-10"><rect class="cls-11" x="70.72" y="67.11" width="168.15" height="48.71"/><rect class="cls-11" x="70.72" y="100.43" width="168.15" height="68.36"/><rect class="cls-12" x="70.72" y="108.95" width="168.15" height="95.27"/></g><path class="cls-11" d="M143.62,49.46s88.23-12.6,79.16,21.18l-143.69-1S72,31.81,143.62,49.46Z"/><path class="cls-13" d="M258.52,108.87c-.39-6.25-3.06-11.25-7.74-14.46-7.53-5.17-18.67-4.49-26.28-3.15l3.56-21a5.65,5.65,0,0,0-5.57-6.6H78.58A5.65,5.65,0,0,0,73,70.27L90.5,173.54v24.62a5.65,5.65,0,0,0,5.65,5.65H204.91a5.65,5.65,0,0,0,5.65-5.65V173.54l3.54-20.88C223.59,149.4,260.14,135.09,258.52,108.87Zm-58.38,58.54h-99.2L85.28,75H215.79Zm16.15-27.63,6.19-36.54c6-1.44,16.75-3,21.91.49,1.12.77,2.63,2.21,2.85,5.84C248.09,123.51,229.27,134.4,216.28,139.78Z"/></g></g></svg>