<svg xmlns="http://www.w3.org/2000/svg" viewBox="0 0 313.93 373.81"><defs><style>.cls-1,.cls-9{fill:#ebdeba;}.cls-1,.cls-6,.cls-7,.cls-9{stroke:#000;stroke-miterlimit:10;}.cls-1,.cls-6{stroke-width:0.97px;}.cls-2{font-size:20.13px;font-family:Superclarendon-Regular, Superclarendon;letter-spacing:0.3em;}.cls-3{font-size:16.42px;font-family:Superclarendon-LightItalic, Superclarendon;font-style:italic;letter-spacing:-0.01em;}.cls-4{letter-spacing:0em;}.cls-5{letter-spacing:0.02em;}.cls-6,.cls-7{fill:none;}.cls-7{stroke-width:1.35px;}.cls-8{fill:#997b53;}.cls-9{stroke-width:1.35px;}</style></defs><title>frame5</title><g id="Layer_2" data-name="Layer 2"><g id="Layer_1-2" data-name="Layer 1"><rect class="cls-1" x="0.48" y="0.48" width="312.96" height="372.85"/><text class="cls-2" transform="translate(48.58 290.58)">DRIP COFFEE</text><text class="cls-3" transform="translate(124.23 260.78)">N<tspan class="cls-4" x="14.45" y="0">o</tspan><tspan class="cls-5" x="24.75" y="0">. 05</tspan></text><line class="cls-6" x1="86.44" y1="316.34" x2="222.44" y2="316.34"/><path class="cls-7" d="M200,69.85a3.81,3.81,0,0,0-2.89-1.33H104.76A3.81,3.81,0,0,0,101,72.91l19.52,127.67a3.81,3.81,0,0,0,3.76,3.23H177.6a3.81,3.81,0,0,0,3.76-3.23L200.89,72.91A3.81,3.81,0,0,0,200,69.85Z"/><polygon class="cls-8" points="188.87 157.5 113.77 157.5 107.01 102.37 195.63 102.37 188.87 157.5"/><path class="cls-8" d="M188.87,161.78h-75.1a4.28,4.28,0,0,1-4.25-3.76l-6.76-55.13a4.28,4.28,0,0,1,4.25-4.8h88.62a4.28,4.28,0,0,1,4.25,4.8L193.12,158A4.28,4.28,0,0,1,188.87,161.78Zm-71.31-8.56h67.52l5.71-46.57H111.85Z"/><path class="cls-9" d="M204.64,54.25h-4.91L193.91,39.4A3.81,3.81,0,0,0,190.37,37H111.52A3.81,3.81,0,0,0,108,39.4l-5.81,14.85H97.25a3.81,3.81,0,0,0-3.81,3.81V72.33a3.81,3.81,0,0,0,3.81,3.81H204.64a3.81,3.81,0,0,0,3.81-3.81V58.06A3.81,3.81,0,0,0,204.64,54.25Z"/><polygon class="cls-7" points="108.61 76.14 126.13 195.77 175.12 195.77 193.24 76.14 108.61 76.14"/></g></g></svg>