<svg xmlns="http://www.w3.org/2000/svg" viewBox="0 0 313.93 373.81"><defs><style>.cls-1{fill:#ebdeba;}.cls-1,.cls-12,.cls-6{stroke:#000;stroke-miterlimit:10;}.cls-1,.cls-6{stroke-width:0.97px;}.cls-2{font-size:20.13px;font-family:Superclarendon-Regular, Superclarendon;letter-spacing:0.3em;}.cls-3{font-size:16.42px;font-family:Superclarendon-LightItalic, Superclarendon;font-style:italic;letter-spacing:-0.01em;}.cls-4{letter-spacing:0em;}.cls-5{letter-spacing:0.02em;}.cls-12,.cls-6{fill:none;}.cls-7{fill:#f4f4f4;}.cls-8{fill:#4c4846;}.cls-9{fill:#997b53;}.cls-10{fill:#fff;}.cls-11{fill:#5e3921;}.cls-12{stroke-width:1.11px;}</style></defs><title>frame12</title><g id="Layer_2" data-name="Layer 2"><g id="Layer_1-2" data-name="Layer 1"><rect class="cls-1" x="0.48" y="0.48" width="312.96" height="372.85"/><text class="cls-2" transform="translate(96.58 290.58)">MOCHA</text><text class="cls-3" transform="translate(129.23 260.78)">N<tspan class="cls-4" x="14.45" y="0">o</tspan><tspan class="cls-5" x="24.75" y="0">. 12</tspan></text><line class="cls-6" x1="116.63" y1="316.34" x2="188.09" y2="316.34"/><polygon class="cls-7" points="102.47 59.93 199.69 59.93 193.75 91.84 108.03 91.84 102.47 59.93"/><polygon class="cls-8" points="114.34 130.43 122.2 185.86 179.69 185.86 187.81 130.43 114.34 130.43"/><polygon class="cls-9" points="108.03 91.84 114.34 130.43 187.81 130.43 193.75 91.84 108.03 91.84"/><path class="cls-10" d="M104.55,62.15s-4.93-16.62,15.39-18.47c0,0,1.23-16,22.17-16,0,0,8-6.77,4.31-15.39,0,0,17.24,11.08,17.24,16.62,0,0,14.16-1.85,14.16,12.31,0,0,24,1.23,20.32,20.93Z"/><path class="cls-11" d="M144.57,44.61a1.54,1.54,0,0,0,0-3.08,1.54,1.54,0,0,0,0,3.08Z"/><path class="cls-11" d="M134.1,39.07a1.54,1.54,0,0,0,0-3.08,1.54,1.54,0,0,0,0,3.08Z"/><path class="cls-11" d="M136.56,54.46a1.54,1.54,0,0,0,0-3.08,1.54,1.54,0,0,0,0,3.08Z"/><path class="cls-11" d="M126.1,50.15a1.54,1.54,0,0,0,0-3.08,1.54,1.54,0,0,0,0,3.08Z"/><path class="cls-11" d="M148.88,31.06a1.54,1.54,0,0,0,0-3.08,1.54,1.54,0,0,0,0,3.08Z"/><path class="cls-11" d="M115,58.77a1.54,1.54,0,0,0,0-3.08,1.54,1.54,0,0,0,0,3.08Z"/><path class="cls-11" d="M149.49,58.15a1.54,1.54,0,0,0,0-3.08,1.54,1.54,0,0,0,0,3.08Z"/><path class="cls-12" d="M200.31,103l8.9-53.82a4.79,4.79,0,0,0-4.73-5.57H97.37a4.79,4.79,0,0,0-4.73,5.54l20.49,130.49a4.79,4.79,0,0,1,.06.74v20.76a4.79,4.79,0,0,0,4.79,4.79h64.81a4.79,4.79,0,0,0,4.79-4.79V180.35a4.8,4.8,0,0,1,.06-.78L193.36,145c20,4.49,25-16.93,25-16.93C227.42,94.78,205.07,101.24,200.31,103Zm10.13,18.39c-3.83,19.14-12.73,14.82-15.33,13.08l3.15-19.05C201.89,112.09,214.31,102,210.44,121.34Z"/><polygon class="cls-12" points="105.25 53.8 125.66 180.71 175.38 180.71 196.53 53.8 105.25 53.8"/></g></g></svg>