<svg xmlns="http://www.w3.org/2000/svg" xmlns:xlink="http://www.w3.org/1999/xlink" viewBox="0 0 313.93 373.81"><defs><style>.cls-1,.cls-13,.cls-8{fill:none;}.cls-2{fill:#ebdeba;}.cls-13,.cls-2,.cls-8{stroke:#000;stroke-miterlimit:10;}.cls-2,.cls-8{stroke-width:0.97px;}.cls-3{font-size:20.13px;font-family:Superclarendon-Regular, Superclarendon;letter-spacing:0.3em;}.cls-4{letter-spacing:0.16em;}.cls-5{font-size:16.42px;font-family:Superclarendon-LightItalic, Superclarendon;font-style:italic;letter-spacing:-0.01em;}.cls-6{letter-spacing:0em;}.cls-7{letter-spacing:0.02em;}.cls-9{clip-path:url(#clip-path);}.cls-10{fill:#fff;}.cls-11{fill:#f4f4f4;}.cls-12{fill:#997b53;}.cls-13{stroke-width:1.51px;}</style><clipPath id="clip-path"><polygon class="cls-1" points="155.24 73.67 83.29 73.67 100.86 172.06 155.24 172.06 209.62 172.06 227.19 73.67 155.24 73.67"/></clipPath></defs><title>frame10</title><g id="Layer_2" data-name="Layer 2"><g id="Layer_1-2" data-name="Layer 1"><rect class="cls-2" x="0.48" y="0.48" width="312.96" height="372.85"/><text class="cls-3" transform="translate(103.58 290.58)">L<tspan class="cls-4" x="21.18" y="0">A</tspan><tspan x="42.17" y="0">TTE</tspan></text><text class="cls-5" transform="translate(126.23 260.78)">N<tspan class="cls-6" x="14.45" y="0">o</tspan><tspan class="cls-7" x="24.75" y="0">. 10</tspan></text><line class="cls-8" x1="121.63" y1="316.34" x2="192.48" y2="316.34"/><g class="cls-9"><rect class="cls-10" x="74.93" y="66.11" width="168.15" height="48.71"/><rect class="cls-11" x="74.93" y="80.73" width="168.15" height="87.06"/><rect class="cls-12" x="74.93" y="140.72" width="168.15" height="62.49"/></g><path class="cls-10" d="M147.82,53.5S236.05,40.9,227,74.68l-143.69-1S76.23,35.86,147.82,53.5Z"/><path class="cls-13" d="M262.72,107.87c-.39-6.25-3.06-11.25-7.74-14.46-7.53-5.17-18.67-4.49-26.28-3.15l3.56-21a5.65,5.65,0,0,0-5.57-6.6H82.79a5.65,5.65,0,0,0-5.57,6.6L94.7,172.54v24.62a5.65,5.65,0,0,0,5.65,5.65H209.11a5.65,5.65,0,0,0,5.65-5.65V172.54l3.54-20.88C227.8,148.4,264.34,134.09,262.72,107.87Zm-58.38,58.54h-99.2L89.48,74H220Zm16.15-27.63,6.19-36.54c6-1.44,16.75-3,21.91.49,1.12.77,2.63,2.21,2.85,5.84C252.3,122.51,233.47,133.4,220.48,138.78Z"/></g></g></svg>