<svg xmlns="http://www.w3.org/2000/svg" xmlns:xlink="http://www.w3.org/1999/xlink" viewBox="0 0 313.93 373.81"><defs><style>.cls-1,.cls-12,.cls-7{fill:none;}.cls-2{fill:#ebdeba;}.cls-12,.cls-2,.cls-7{stroke:#000;stroke-miterlimit:10;}.cls-2,.cls-7{stroke-width:0.97px;}.cls-3{font-size:20.13px;font-family:Superclarendon-Regular, Superclarendon;letter-spacing:0.3em;}.cls-4{font-size:16.42px;font-family:Superclarendon-LightItalic, Superclarendon;font-style:italic;letter-spacing:-0.01em;}.cls-5{letter-spacing:0em;}.cls-6{letter-spacing:0.02em;}.cls-8{clip-path:url(#clip-path);}.cls-9{fill:#49372e;}.cls-10{fill:#685249;}.cls-11{fill:#564239;}.cls-12{stroke-width:1.46px;}</style><clipPath id="clip-path"><polygon class="cls-1" points="155.52 37.99 154.61 37.99 98.72 37.99 117.79 186.63 154.61 186.63 155.52 186.63 192.34 186.63 211.41 37.99 155.52 37.99"/></clipPath></defs><title>frame4</title><g id="Layer_2" data-name="Layer 2"><g id="Layer_1-2" data-name="Layer 1"><rect class="cls-2" x="0.48" y="0.48" width="312.96" height="372.85"/><text class="cls-3" transform="translate(59.58 290.58)">COLD BREW</text><text class="cls-4" transform="translate(124.23 260.78)">N<tspan class="cls-5" x="14.45" y="0">o</tspan><tspan class="cls-6" x="24.75" y="0">. 04</tspan></text><line class="cls-7" x1="93.63" y1="316.34" x2="226.09" y2="316.34"/><g class="cls-8"><polygon class="cls-9" points="228.08 48.33 90.71 48.33 98.92 194.93 219.88 194.93 228.08 48.33"/></g><rect class="cls-10" x="125.09" y="143.57" width="27.31" height="27.31" transform="translate(-61.08 93.66) rotate(-30.93)"/><path class="cls-10" d="M134,178.61a2.66,2.66,0,0,1-2.28-1.29l-14-23.42a2.66,2.66,0,0,1,.91-3.65l23.42-14a2.66,2.66,0,0,1,3.65.91l14,23.42a2.66,2.66,0,0,1-.91,3.64l-23.42,14A2.66,2.66,0,0,1,134,178.61Zm-10.39-25.17L135,172.3,153.82,161l-11.3-18.86Z"/><rect class="cls-10" x="157.93" y="148.77" width="27.31" height="27.31" transform="translate(-59.08 111.27) rotate(-30.93)"/><path class="cls-10" d="M166.89,183.81a2.66,2.66,0,0,1-2.28-1.29l-14-23.42a2.66,2.66,0,0,1,.91-3.65l23.42-14a2.66,2.66,0,0,1,3.65.91l14,23.42a2.66,2.66,0,0,1-.91,3.64l-23.42,14A2.66,2.66,0,0,1,166.89,183.81ZM156.5,158.64l11.3,18.87,18.86-11.3-11.3-18.87Z"/><rect class="cls-10" x="151.23" y="118.2" width="27.3" height="27.3" transform="translate(23.04 288.23) rotate(-86.44)"/><path class="cls-10" d="M177.66,149h-.17l-27.25-1.7a2.65,2.65,0,0,1-2.49-2.82l1.7-27.25a2.65,2.65,0,0,1,2.81-2.49l27.25,1.7a2.65,2.65,0,0,1,2.49,2.82l-1.69,27.25A2.66,2.66,0,0,1,177.66,149Zm-24.44-6.84,21.95,1.36,1.36-21.95-21.95-1.36Z"/><rect class="cls-11" x="146.18" y="150.3" width="27.31" height="27.3" transform="translate(-59.14 230.86) rotate(-62.72)"/><path class="cls-11" d="M165.71,185a2.63,2.63,0,0,1-1.22-.3l-24.27-12.51a2.66,2.66,0,0,1-1.14-3.58l12.51-24.27a2.65,2.65,0,0,1,3.58-1.14l24.27,12.51a2.66,2.66,0,0,1,1.14,3.58l-12.51,24.27a2.67,2.67,0,0,1-2.36,1.44ZM145,168.69l19.55,10.08,10.08-19.55-19.55-10.08Z"/><rect class="cls-11" x="127.36" y="108.48" width="27.3" height="27.31" transform="translate(-22.98 33.2) rotate(-12.43)"/><path class="cls-11" d="M159,134.57a2.68,2.68,0,0,1-1.13.55L131.19,141a2.66,2.66,0,0,1-3.17-2l-5.88-26.67a2.65,2.65,0,0,1,2-3.17l26.66-5.88a2.66,2.66,0,0,1,3.17,2L159.87,132a2.66,2.66,0,0,1-.89,2.62Zm-26.34.67,21.48-4.73L149.38,109l-21.48,4.73Z"/><path class="cls-12" d="M214.42,35.34a4,4,0,0,0-3-1.36H98.72a4,4,0,0,0-4,4.52l19.07,148.63a4,4,0,0,0,4,3.5h.05v11a3.75,3.75,0,0,0,3.75,3.75h66.94a3.75,3.75,0,0,0,3.75-3.75v-11h.05a4,4,0,0,0,4-3.5L215.39,38.5A4,4,0,0,0,214.42,35.34ZM188.81,182.61H121.32L103.28,42H206.85Z"/></g></g></svg>