<svg xmlns="http://www.w3.org/2000/svg" xmlns:xlink="http://www.w3.org/1999/xlink" viewBox="0 0 313.93 373.81"><defs><style>.cls-1,.cls-11,.cls-7{fill:none;}.cls-2{fill:#ebdeba;}.cls-11,.cls-2,.cls-7{stroke:#000;stroke-miterlimit:10;}.cls-2,.cls-7{stroke-width:0.97px;}.cls-3{font-size:20.13px;font-family:Superclarendon-Regular, Superclarendon;letter-spacing:0.3em;}.cls-4{font-size:16.42px;font-family:Superclarendon-LightItalic, Superclarendon;font-style:italic;letter-spacing:-0.01em;}.cls-5{letter-spacing:0em;}.cls-6{letter-spacing:0.02em;}.cls-8{clip-path:url(#clip-path);}.cls-9{fill:#f4f4f4;}.cls-10{fill:#997b53;}.cls-11{stroke-width:1.51px;}</style><clipPath id="clip-path"><polygon class="cls-1" points="154.69 68.46 82.75 68.46 100.32 172.2 154.69 172.2 209.07 172.2 226.64 68.46 154.69 68.46"/></clipPath></defs><title>frame2new</title><g id="Layer_2" data-name="Layer 2"><g id="Layer_1-2" data-name="Layer 1"><rect class="cls-2" x="0.48" y="0.48" width="312.96" height="372.85"/><text class="cls-3" transform="translate(101.58 290.58)">BREVE</text><text class="cls-4" transform="translate(124.23 260.78)">N<tspan class="cls-5" x="14.45" y="0">o</tspan><tspan class="cls-6" x="24.75" y="0">. 02</tspan></text><line class="cls-7" x1="117.44" y1="316.34" x2="191.44" y2="316.34"/><g class="cls-8"><rect class="cls-9" x="74.38" y="68.46" width="168.15" height="64.33"/><rect class="cls-10" x="74.38" y="118.17" width="168.15" height="72.87"/></g><path class="cls-11" d="M262.68,108c-.39-6.25-3.06-11.25-7.74-14.46-7.53-5.17-18.67-4.49-26.28-3.15l3.56-21a5.65,5.65,0,0,0-5.57-6.6H82.75a5.65,5.65,0,0,0-5.57,6.6L94.66,172.67v24.62a5.65,5.65,0,0,0,5.65,5.65H209.07a5.65,5.65,0,0,0,5.65-5.65V172.68l3.54-20.88C227.76,148.53,264.3,134.23,262.68,108ZM204.3,166.54h-99.2L89.44,74.11H220Zm16.15-27.63,6.19-36.54c6-1.44,16.75-3,21.91.49,1.12.77,2.63,2.21,2.85,5.84C252.26,122.64,233.43,133.53,220.44,138.91Z"/></g></g></svg>