<svg xmlns="http://www.w3.org/2000/svg" xmlns:xlink="http://www.w3.org/1999/xlink" viewBox="0 0 313.93 373.81"><defs><style>.cls-1,.cls-13,.cls-9{fill:none;}.cls-2{fill:#ebdeba;}.cls-13,.cls-2,.cls-9{stroke:#000;stroke-miterlimit:10;}.cls-2,.cls-9{stroke-width:0.97px;}.cls-3{font-size:20.13px;font-family:Superclarendon-Regular, Superclarendon;letter-spacing:0.3em;}.cls-4{letter-spacing:0.24em;}.cls-5{letter-spacing:0.3em;}.cls-6{font-size:16.42px;font-family:Superclarendon-LightItalic, Superclarendon;font-style:italic;letter-spacing:-0.01em;}.cls-7{letter-spacing:0em;}.cls-8{letter-spacing:0.02em;}.cls-10{clip-path:url(#clip-path);}.cls-11{fill:#e0e9fc;}.cls-12{fill:#997b53;}.cls-13{stroke-width:1.51px;}</style><clipPath id="clip-path"><polygon class="cls-1" points="157.48 68.46 85.53 68.46 103.1 172.2 157.48 172.2 211.86 172.2 229.43 68.46 157.48 68.46"/></clipPath></defs><title>frame1</title><g id="Layer_2" data-name="Layer 2"><g id="Layer_1-2" data-name="Layer 1"><rect class="cls-2" x="0.48" y="0.48" width="312.96" height="372.85"/><text class="cls-3" transform="translate(59.58 290.58)">AMERI<tspan class="cls-4" x="110.13" y="0">C</tspan><tspan class="cls-5" x="130.82" y="0">ANO</tspan></text><text class="cls-6" transform="translate(124.23 260.78)">N<tspan class="cls-7" x="14.45" y="0">o</tspan><tspan class="cls-8" x="24.75" y="0">. 01</tspan></text><line class="cls-9" x1="95.63" y1="316.34" x2="224.09" y2="316.34"/><g class="cls-10"><rect class="cls-11" x="77.17" y="68.46" width="168.15" height="64.33"/><rect class="cls-12" x="77.17" y="118.17" width="168.15" height="72.87"/></g><path class="cls-13" d="M265.46,108c-.39-6.25-3.06-11.25-7.74-14.46-7.53-5.17-18.67-4.49-26.28-3.15l3.56-21a5.65,5.65,0,0,0-5.57-6.6H85.53A5.65,5.65,0,0,0,80,69.4L97.45,172.67v24.62a5.65,5.65,0,0,0,5.65,5.65H211.86a5.65,5.65,0,0,0,5.65-5.65V172.68L221,151.8C230.54,148.53,267.09,134.23,265.46,108Zm-58.38,58.54h-99.2L92.22,74.11H222.73Zm16.15-27.63,6.19-36.54c6-1.44,16.75-3,21.91.49,1.12.77,2.63,2.21,2.85,5.84C255,122.64,236.22,133.53,223.23,138.91Z"/></g></g></svg>