<svg xmlns="http://www.w3.org/2000/svg" xmlns:xlink="http://www.w3.org/1999/xlink" viewBox="0 0 313.93 373.81"><defs><style>.cls-1,.cls-13,.cls-9{fill:none;}.cls-2{fill:#ebdeba;}.cls-13,.cls-2,.cls-9{stroke:#000;stroke-miterlimit:10;}.cls-2,.cls-9{stroke-width:0.97px;}.cls-3{font-size:20.13px;font-family:Superclarendon-Regular, Superclarendon;letter-spacing:0.3em;}.cls-4{letter-spacing:0.16em;}.cls-5{letter-spacing:0.3em;}.cls-6{font-size:16.42px;font-family:Superclarendon-LightItalic, Superclarendon;font-style:italic;letter-spacing:-0.01em;}.cls-7{letter-spacing:0em;}.cls-8{letter-spacing:0.02em;}.cls-10{clip-path:url(#clip-path);}.cls-11{fill:#f4f4f4;}.cls-12{fill:#997b53;}.cls-13{stroke-width:1.51px;}</style><clipPath id="clip-path"><polygon class="cls-1" points="147.07 67.45 75.13 67.45 92.7 171.39 147.07 171.39 201.45 171.39 219.02 67.45 147.07 67.45"/></clipPath></defs><title>Frame7</title><g id="Layer_2" data-name="Layer 2"><g id="Layer_1-2" data-name="Layer 1"><rect class="cls-2" x="0.48" y="0.48" width="312.96" height="372.85"/><text class="cls-3" transform="translate(53.58 290.58)">FL<tspan class="cls-4" x="41.99" y="0">A</tspan><tspan class="cls-5" x="62.99" y="0">T WHITE</tspan></text><text class="cls-6" transform="translate(118.23 260.78)">N<tspan class="cls-7" x="14.45" y="0">o</tspan><tspan class="cls-8" x="24.75" y="0">. 07</tspan></text><line class="cls-9" x1="89.63" y1="316.34" x2="218.09" y2="316.34"/><g class="cls-10"><rect class="cls-11" x="66.76" y="65.43" width="168.15" height="48.71"/><rect class="cls-11" x="66.76" y="98.76" width="168.15" height="68.36"/><rect class="cls-12" x="66.76" y="115.34" width="168.15" height="87.2"/></g><path class="cls-13" d="M254.56,107.19c-.39-6.25-3.06-11.25-7.74-14.46-7.53-5.17-18.67-4.49-26.28-3.15l3.56-21a5.65,5.65,0,0,0-5.57-6.6H74.62a5.65,5.65,0,0,0-5.57,6.6L86.54,171.86v24.62a5.65,5.65,0,0,0,5.65,5.65H200.95a5.65,5.65,0,0,0,5.65-5.65V171.87L210.14,151C219.63,147.72,256.18,133.42,254.56,107.19Zm-58.38,58.54H97L81.32,73.3H211.83Zm16.15-27.63,6.19-36.54c6-1.44,16.75-3,21.91.49,1.12.77,2.63,2.21,2.85,5.84C244.13,121.83,225.31,132.72,212.32,138.1Z"/></g></g></svg>