<svg xmlns="http://www.w3.org/2000/svg" viewBox="0 0 313.93 373.81"><defs><style>.cls-1{fill:#ebdeba;}.cls-1,.cls-6,.cls-8{stroke:#000;stroke-miterlimit:10;}.cls-1,.cls-6{stroke-width:0.97px;}.cls-2{font-size:20.13px;font-family:Superclarendon-Regular, Superclarendon;letter-spacing:0.3em;}.cls-3{font-size:16.42px;font-family:Superclarendon-LightItalic, Superclarendon;font-style:italic;letter-spacing:-0.01em;}.cls-4{letter-spacing:0em;}.cls-5{letter-spacing:0.02em;}.cls-6,.cls-8{fill:none;}.cls-7{fill:#fff;}.cls-8{stroke-width:1.51px;}.cls-9{fill:#997b53;}</style></defs><title>frame8</title><g id="Layer_2" data-name="Layer 2"><g id="Layer_1-2" data-name="Layer 1"><rect class="cls-1" x="0.48" y="0.48" width="312.96" height="372.85"/><text class="cls-2" transform="translate(94.58 290.58)">FRAPPÉ</text><text class="cls-3" transform="translate(128.23 260.78)">N<tspan class="cls-4" x="14.45" y="0">o</tspan><tspan class="cls-5" x="24.75" y="0">. 08</tspan></text><line class="cls-6" x1="121.44" y1="316.34" x2="195.44" y2="316.34"/><path class="cls-7" d="M113.09,71.08s-4.73-10.36,14.79-11.51c0,0,1.18-10,21.3-10,0,0,7.69-4.22,4.14-9.59,0,0,16.57,6.91,16.57,10.36,0,0,13.61-1.15,13.61,7.67,0,0,23.08.77,19.53,13Z"/><path class="cls-8" d="M144.1,37.28c1.37-.39,6.52-.78,13.7-.78s12.51.4,13.91.8C191.6,42.93,198.37,61,200.61,70.81h6.28c-2.2-10.75-9.58-32.63-33.51-39.41-3.37-1-12.77-1-15.58-1s-12,.07-15.36,1c-24,6.75-31.38,28.67-33.58,39.43h6.28C117.37,61,124.16,42.89,144.1,37.28Z"/><path class="cls-8" d="M207.94,71.18H107.81a2.9,2.9,0,0,0-2.9,2.9V83a2.9,2.9,0,0,0,2.9,2.9h5.3l13.24,103.18a3.07,3.07,0,0,0,3,2.68h0v8.38a2.87,2.87,0,0,0,2.87,2.87h51.16a2.87,2.87,0,0,0,2.87-2.87v-8.38h0a3.07,3.07,0,0,0,3-2.68L202.64,85.88h5.3a2.9,2.9,0,0,0,2.9-2.9v-8.9A2.9,2.9,0,0,0,207.94,71.18ZM183.66,185.6H132.08l-12.8-99.73h77.17Z"/><polygon class="cls-9" points="192.71 157.81 122.69 157.81 116.38 106.41 199.01 106.41 192.71 157.81"/><path class="cls-9" d="M192.71,161.8h-70a4,4,0,0,1-4-3.51l-6.3-51.4a4,4,0,0,1,4-4.48H199a4,4,0,0,1,4,4.48l-6.3,51.4A4,4,0,0,1,192.71,161.8Zm-66.49-8h63l5.32-43.42H120.9Z"/></g></g></svg>