<svg xmlns="http://www.w3.org/2000/svg" viewBox="0 0 26.38 41.76"><defs><style>.cls-1{fill:#c1883d;}</style></defs><title>Asset 4</title><g id="Layer_2" data-name="Layer 2"><g id="Layer_1-2" data-name="Layer 1"><path class="cls-1" d="M23.23,18.08c-1-2.22-2.21-4.85-3.57-7.5-1-2-2.13-4-3.19-6q-.94-1.73-1.86-3.47A2,2,0,0,0,13.49,0h-.57A1.55,1.55,0,0,0,12,.67l-.57,1C11,2.46,10.58,3.24,10.17,4l-.73,1.4C8,8.13,6.57,10.93,5.19,13.7a78.63,78.63,0,0,0-3.82,8.91A25,25,0,0,0,.12,27.18a11.61,11.61,0,0,0,.61,5.68A13.11,13.11,0,0,0,5.22,39a12.62,12.62,0,0,0,4.84,2.31c.53.12,1.08.21,1.62.29l.76.12H14l.23-.05a13.17,13.17,0,0,0,7.58-3.18,13,13,0,0,0,4-6.14,12.14,12.14,0,0,0,.1-6.93A51.3,51.3,0,0,0,23.23,18.08Zm-.62,15.48a9.79,9.79,0,0,1-3.18,3.61,10.81,10.81,0,0,1-6.17,2.07A11.21,11.21,0,0,1,8,37.82a10,10,0,0,1-4.4-4.72,9.37,9.37,0,0,1-1-5.33,19.82,19.82,0,0,1,.77-3.2,50.08,50.08,0,0,1,2.76-6.84c1.53-3.19,3.08-6.31,4.68-9.5.42-.85.89-1.69,1.34-2.5l.59-1.08.12-.21.37-.6.6,1.09c.23.42.46.83.67,1.24l.86,1.64c.76,1.43,1.54,2.92,2.27,4.4,1.18,2.42,2.4,5,3.73,8a38.53,38.53,0,0,1,2.21,6.22A9.86,9.86,0,0,1,22.61,33.56Z"/><path class="cls-1" d="M18.78,27.29h0a1.25,1.25,0,0,0-1.25,1.16l0,.21c0,.16,0,.32-.05.48a4.28,4.28,0,0,1-2.1,3.11,5.07,5.07,0,0,1-2.24.6,1.26,1.26,0,0,0,.14,2.52,8.11,8.11,0,0,0,1.35-.15A6.82,6.82,0,0,0,20,28.91v-.15a2.72,2.72,0,0,0,0-.29A1.24,1.24,0,0,0,18.78,27.29Z"/></g></g></svg>