<svg xmlns="http://www.w3.org/2000/svg" viewBox="0 0 34.98 34.98"><title>Asset 4</title><g id="Layer_2" data-name="Layer 2"><g id="Layer_1-2" data-name="Layer 1"><g id="Vu01Vl"><path d="M11.14,11.68A11.92,11.92,0,1,1,23.07,23.83,11.94,11.94,0,0,1,11.14,11.68Zm12.15-10a10.26,10.26,0,1,0,10,10.5A10.32,10.32,0,0,0,23.28,1.67Z"/><path d="M11.06,21.33a6.65,6.65,0,0,0-1.59.87C6.54,25,3.66,27.94.78,30.84a2.34,2.34,0,0,0,0,3.45,2.32,2.32,0,0,0,3.39-.09c2.9-2.88,5.78-5.78,8.66-8.67a2.28,2.28,0,0,0,.5-2.65A2.6,2.6,0,0,0,11.06,21.33Z"/><path d="M15.72,22.39a4.35,4.35,0,0,0-.45-.75c-.64-.67-1.31-1.32-2-2a.81.81,0,0,0-1.23-.08.78.78,0,0,0,0,1.23c.69.7,1.36,1.42,2.1,2.07a1.21,1.21,0,0,0,1,.16C15.37,23,15.52,22.64,15.72,22.39Z"/><path d="M23.07,19.46a12.48,12.48,0,0,0-1.7-.21,2.94,2.94,0,0,0-.95.35c.27.25.52.65.82.71a8.25,8.25,0,0,0,8.55-3.1,8.31,8.31,0,0,0,.94-9.12,1.34,1.34,0,0,0-.41-.6c-.16-.1-.55-.1-.64,0a.91.91,0,0,0-.11.72,21.05,21.05,0,0,1,.84,2.55A7.49,7.49,0,0,1,23.07,19.46Z"/></g></g></g></svg>