<svg id="Layer_1" data-name="Layer 1" xmlns="http://www.w3.org/2000/svg" viewBox="0 0 564.55 483.51"><defs><style>.cls-1,.cls-7{fill:none;}.cls-1,.cls-2,.cls-3,.cls-4{stroke:#000;}.cls-1,.cls-2,.cls-3,.cls-4,.cls-7{stroke-miterlimit:10;}.cls-1{stroke-width:3px;}.cls-2{fill:#f4f4f4;}.cls-2,.cls-3,.cls-4{stroke-width:3.3px;}.cls-3{fill:#997a51;}.cls-4{fill:#49352d;}.cls-5{font-size:21.98px;fill:#938b7c;font-family:Superclarendon-LightItalic, Superclarendon;font-style:italic;letter-spacing:0.02em;}.cls-6{letter-spacing:-0.01em;}.cls-7{stroke:#938b7c;stroke-width:1.1px;}</style></defs><title>mocha</title><path class="cls-1" d="M555.69,261l24-145a12.92,12.92,0,0,0-12.74-15H278.26a12.92,12.92,0,0,0-12.76,14.92l55.22,351.68a12.92,12.92,0,0,1,.16,2v55.95a12.92,12.92,0,0,0,12.92,12.92H508.47a12.92,12.92,0,0,0,12.92-12.92v-55.9a12.92,12.92,0,0,1,.17-2.11l15.38-93.07c54,12.09,67.31-45.63,67.31-45.63C628.75,238.92,568.5,256.35,555.69,261ZM583,310.51c-10.32,51.59-34.31,39.94-41.31,35.25l8.49-51.35C559.93,285.59,593.4,258.42,583,310.51Z" transform="translate(-47 -56.35)"/><polygon class="cls-2" points="246.54 62.76 504.77 62.76 499.41 119.94 252.17 121.03 246.54 62.76"/><polygon class="cls-3" points="256.62 134.15 494.69 131.96 485.44 200 265.86 200 256.62 134.15"/><polygon class="cls-4" points="264.77 212.34 298.19 428.03 453.12 428.03 486.54 212.34 264.77 212.34"/><path class="cls-2" d="M305.95,88.38S351.52,58,424.43,58,533.8,88.38,533.8,88.38Z" transform="translate(-47 -56.35)"/><text class="cls-5" transform="translate(0 100.14)">10% Whipped<tspan x="0" y="26.37">Cream</tspan></text><text class="cls-5" transform="translate(11 182.36)">30% Espresso</text><text class="cls-5" transform="translate(77 314.81)">60% Hot<tspan x="0" y="26.37">Chocol</tspan><tspan class="cls-6" x="84.87" y="26.37">a</tspan><tspan x="99.14" y="26.37">te</tspan></text><line class="cls-7" x1="176.9" y1="95.21" x2="224.15" y2="95.21"/><line class="cls-7" x1="194.48" y1="178.17" x2="234.04" y2="178.17"/><line class="cls-7" x1="198.87" y1="315.53" x2="257.11" y2="315.53"/></svg>