<svg xmlns="http://www.w3.org/2000/svg" viewBox="0 0 36.05 39.56"><defs><style>.cls-1{stroke:#fbb643;stroke-miterlimit:10;stroke-width:0.91px;}</style></defs><title>snow</title><g id="Layer_2" data-name="Layer 2"><g id="Layer_1-2" data-name="Layer 1"><g id="_3GZsjI" data-name="3GZsjI"><path class="cls-1" d="M30.45,32.91l-2.82.71c-.56-2.19-1.15-4.32-1.64-6.46a2.23,2.23,0,0,0-1.18-1.6c-1.74-1-3.44-2-5.33-3.18,0,2.46,0,4.73,0,7,0,.28.36.58.6.82,1.61,1.62,3.24,3.23,4.82,4.8l-2.19,2.28-2.93-3.47-.35.24v5.06H16.64V33.94l-3.31,3.48L11.16,35c1.38-1.37,2.83-2.9,4.37-4.32a3,3,0,0,0,1.07-2.58c-.09-1.82,0-3.65,0-5.71-2.14,1.29-4.13,2.46-6.07,3.69-.24.15-.31.6-.4.94-.56,2.17-1.1,4.35-1.68,6.62L5.6,32.92l1.12-4.63L2.19,31,.68,28.49,5.27,25.7.56,24.47l.71-2.82c2.26.56,4.47,1.15,6.7,1.63A2.73,2.73,0,0,0,9.71,23c1.81-1,3.56-2.11,5.43-3.24-2-1.23-4-2.41-5.92-3.53a1.67,1.67,0,0,0-1.1,0c-2.26.54-4.51,1.12-6.84,1.7L.55,15.09l4.71-1.22L.69,11.08,2.18,8.57l4.55,2.7L5.59,6.65l2.82-.71c.56,2.19,1.15,4.32,1.64,6.47A2.23,2.23,0,0,0,11.24,14c1.74,1,3.44,2,5.33,3.18,0-2.43,0-4.67,0-6.91,0-.31-.35-.66-.61-.92-1.61-1.63-3.23-3.24-4.81-4.81l2.18-2.29,2.94,3.48.34-.23V.45h2.83V5.63l3.31-3.47,2.16,2.42c-1.44,1.43-2.95,3-4.53,4.49a2.65,2.65,0,0,0-.91,2.21c.07,1.89,0,3.79,0,5.91,2.11-1.27,4.07-2.41,6-3.63.27-.17.39-.64.48-1,.57-2.17,1.11-4.35,1.68-6.61l2.83.69-1.13,4.62,4.54-2.68,1.51,2.5-4.59,2.79,4.7,1.22-.71,2.82c-2.26-.56-4.47-1.15-6.7-1.63a2.73,2.73,0,0,0-1.75.26c-1.81,1-3.56,2.11-5.43,3.24,2,1.23,4,2.41,5.92,3.53a1.67,1.67,0,0,0,1.1,0c2.26-.54,4.51-1.12,6.84-1.7l.73,2.83-4.71,1.22,4.59,2.8L33.86,31l-4.54-2.7Z"/></g></g></g></svg>