<svg xmlns="http://www.w3.org/2000/svg" viewBox="0 0 43.98 44.25"><defs><style>.cls-1{fill:#c1883d;}</style></defs><title>Asset 2</title><g id="Layer_2" data-name="Layer 2"><g id="Layer_1-2" data-name="Layer 1"><g id="_026mOj" data-name="026mOj"><path class="cls-1" d="M16.74,14.56c2,.25,3.6.51,5.24.62a2.72,2.72,0,0,0,1.71-.5C25.18,13.53,26.55,12.22,28,11c.81-.65.82-1.21.26-2a3.11,3.11,0,0,1-.7-1.89A3,3,0,0,0,26.44,4L23.15,1.4c-2.32-1.86-3-1.86-5.36-.06-2.68,2-5.34,4.13-8.09,6.08A5.54,5.54,0,0,0,7.52,10c-.77,2.07-1.6,4.11-2.34,6.19C4,19.48,2.84,22.71,1.85,26,1.08,28.57.55,31.21,0,33.84A1.52,1.52,0,0,0,.67,35a60.52,60.52,0,0,0,12.29,6c7.65,2.68,15.43,4.14,23.54,2.49a16.36,16.36,0,0,0,7.06-2.8l-.85-1a34.33,34.33,0,0,1-3.55,1.56,32.52,32.52,0,0,1-11.79,1.36,48.42,48.42,0,0,1-16-3.86c-3.34-1.42-6.56-3.14-9.79-4.71.26-1,.43-1.64.59-2.3.94-3.68,1.18-7.53,2.8-11.06a78.9,78.9,0,0,0,3.18-8.19,8.46,8.46,0,0,1,3.53-4.75C14.39,6.06,16.83,3.93,19.44,2a2,2,0,0,1,1.8-.17,38.54,38.54,0,0,1,4.41,3.54,1.69,1.69,0,0,1,.17,1.64,20.63,20.63,0,0,1-3.16,2.77,1.43,1.43,0,0,1-1.37-.18C21,9.37,21,8.73,21,8.25c0-.26.33-.5.52-.77l-.73-1a2.61,2.61,0,0,0-1,3.81,2.7,2.7,0,0,0,3.91.7c.88-.66,1.69-1.42,2.6-2.19L27,9.87c-4.07,3.92-4.07,3.92-9.36,3.28a3.77,3.77,0,0,1-.4-.1l.09-1.17-1.34-.29a16.63,16.63,0,0,0-.59,6.88c.6,4.49.72,8.86-2.9,12.38l1.18,1.33c.93-1.54,1.75-2.94,2.63-4.3.22-.35.65-.85.94-.82a23.32,23.32,0,0,1,2.95.6l-.82,2c.29.11.47.19.66.25l.71.2a9.32,9.32,0,0,1,7.6-5.65,9.18,9.18,0,0,1,8.87,3.2l1.24-.92-2.77-2.6a8.92,8.92,0,0,1,7.91-1.52L44,21.25a10.26,10.26,0,0,0-9.28,1.65,1.88,1.88,0,0,1-1.34.38A12.17,12.17,0,0,0,21.59,26a1.19,1.19,0,0,1-.92.27c-1.2-.29-2.38-.66-3.45-1Z"/><path class="cls-1" d="M16.74,14.56l.49,10.79c1.07.31,2.25.68,3.45,1a1.19,1.19,0,0,0,.92-.27,12.17,12.17,0,0,1,11.78-2.77,1.88,1.88,0,0,0,1.34-.38A10.26,10.26,0,0,1,44,21.25l-.44,1.36a8.92,8.92,0,0,0-7.91,1.52l2.77,2.6-1.24.92a9.18,9.18,0,0,0-8.87-3.2,9.32,9.32,0,0,0-7.6,5.65l-.71-.2c-.19-.06-.37-.14-.66-.25l.82-2a23.32,23.32,0,0,0-2.95-.6c-.29,0-.72.48-.94.82-.87,1.36-1.69,2.76-2.63,4.3l-1.18-1.33C16.08,27.34,16,23,15.36,18.48a16.63,16.63,0,0,1,.59-6.88l1.34.29-.09,1.17a3.77,3.77,0,0,0,.4.1c5.29.64,5.29.64,9.36-3.28l-.67-1.07c-.91.77-1.71,1.53-2.6,2.19a2.7,2.7,0,0,1-3.91-.7,2.61,2.61,0,0,1,1-3.81l.73,1c-.19.27-.51.51-.52.77,0,.48,0,1.12.24,1.4a1.43,1.43,0,0,0,1.37.18,20.63,20.63,0,0,0,3.16-2.77,1.69,1.69,0,0,0-.17-1.64,38.54,38.54,0,0,0-4.41-3.54,2,2,0,0,0-1.8.17c-2.61,1.88-5,4-7.72,5.77a8.46,8.46,0,0,0-3.53,4.75A78.9,78.9,0,0,1,5,20.76c-1.62,3.53-1.86,7.38-2.8,11.06-.17.66-.34,1.31-.59,2.3,3.24,1.57,6.45,3.29,9.79,4.71a48.42,48.42,0,0,0,16,3.86,32.52,32.52,0,0,0,11.79-1.36,34.33,34.33,0,0,0,3.55-1.56l.85,1a16.36,16.36,0,0,1-7.06,2.8c-8.11,1.65-15.89.19-23.54-2.49A60.52,60.52,0,0,1,.67,35,1.52,1.52,0,0,1,0,33.84C.55,31.21,1.08,28.57,1.85,26c1-3.29,2.19-6.53,3.34-9.77.74-2.08,1.57-4.12,2.34-6.19A5.54,5.54,0,0,1,9.7,7.42c2.75-2,5.4-4,8.09-6.08,2.35-1.8,3-1.8,5.36.06L26.44,4a3,3,0,0,1,1.14,3.08A3.11,3.11,0,0,0,28.28,9c.56.82.55,1.38-.26,2-1.48,1.18-2.85,2.49-4.34,3.64a2.72,2.72,0,0,1-1.71.5C20.34,15.07,18.71,14.81,16.74,14.56Z"/></g></g></g></svg>