<svg xmlns="http://www.w3.org/2000/svg" viewBox="0 0 53 39.45"><defs><style>.cls-1{fill:#c1883d;}</style></defs><title>Asset 1</title><g id="Layer_2" data-name="Layer 2"><g id="Layer_1-2" data-name="Layer 1"><g id="b8teH8"><path class="cls-1" d="M31.36,10.61c-1.08.44-2.24.69-3.47,1.06l1.07.82c3,2.31,3.46,5.12,1.2,8.17a22,22,0,0,1-9.51,6.89A26.19,26.19,0,0,1,10,30c-4.65-.07-6.9-2.61-6.4-7.25,0-.26.07-.51.14-1-1.41,1.82-2.05,3.55-1.43,5.55,2,6.44,9.35,11,16,10.09a22.94,22.94,0,0,0,7.75-2.56c5.9-3.17,8.24-8.34,8.23-14.78A5.94,5.94,0,0,1,38,14.21c4.42-2,8.93-3.8,13.43-5.6.41-.16,1,.23,1.57.36v.94c-1.33.63-2.65,1.32-4,1.89-3.2,1.37-6.44,2.66-9.64,4a4.55,4.55,0,0,0-3.06,4.65C36.48,32.37,27.84,37.65,20,39.09,12.46,40.47,6.4,37.82,2.05,31.53A27.87,27.87,0,0,1,0,27.11V24.51A15.31,15.31,0,0,1,5.11,17.1a11.68,11.68,0,0,0,1.13-1.33c1.33-1.59,2.62-3.21,4-4.75a5,5,0,0,1,3.93-1.58c2.89.09,5.77.34,8.66.46a18.76,18.76,0,0,0,7.91-1.29Q40.84,4.48,50.9.25c.86-.36,1.57-.45,2.1.47v.47a5.38,5.38,0,0,1-1.15.92M10.81,28A28,28,0,0,0,25,22.66a23.4,23.4,0,0,0,4-4.24,2.41,2.41,0,0,0-.23-3.14,8.18,8.18,0,0,0-4.18-2.7,23.87,23.87,0,0,0-11-.94,4,4,0,0,0-2,1,19.55,19.55,0,0,0-4.92,6.67,10.57,10.57,0,0,0-1.05,5.24,3.1,3.1,0,0,0,2.8,3.25C9.26,27.9,10.09,27.9,10.81,28Z"/><path class="cls-1" d="M12.69,20.57c.48-.71,1-1.11,1-1.49s-.57-.65-.89-1c-.34.34-.88.63-1,1S12.22,19.86,12.69,20.57Zm-2.16.16c-.45.78-.89,1.21-.86,1.61s.59.66.91,1c.34-.35.91-.69.94-1.07S11,21.47,10.53,20.73Zm4.31,3.09c.48-.76,1-1.2.92-1.57s-.64-.69-1-1c-.31.34-.86.67-.87,1S14.36,23.06,14.84,23.82Z"/><path class="cls-1" d="M12.69,20.57c-.47-.71-1-1.14-.9-1.44s.62-.69,1-1c.32.32.88.64.89,1S13.18,19.86,12.69,20.57Z"/><path class="cls-1" d="M10.53,20.73c.51.74,1,1.16,1,1.53s-.61.72-.94,1.07c-.32-.33-.88-.63-.91-1S10.09,21.51,10.53,20.73Z"/><path class="cls-1" d="M14.84,23.82c-.48-.76-.95-1.17-.93-1.57s.56-.68.87-1c.35.34.93.65,1,1S15.32,23.06,14.84,23.82Z"/></g></g></g></svg>